<svg version="1.1" xmlns="http://www.w3.org/2000/svg" viewBox="0 0 1275.1445138189943 496.2299750029151" width="3825.4335414569828" height="1488.6899250087454">
  <!-- svg-source:excalidraw -->
  
  <defs>
    <style>
      @font-face {
        font-family: "Virgil";
        src: url("https://excalidraw.com/Virgil.woff2");
      }
      @font-face {
        font-family: "Cascadia";
        src: url("https://excalidraw.com/Cascadia.woff2");
      }
    </style>
  </defs>
  <g stroke-linecap="round" transform="translate(90.00531005859375 153.93712832322763) rotate(0 88.49200439453125 153.00079345703125)"><path d="M-0.1 1.73 C56.55 1.25, 108.55 -1.05, 178.18 1.46 M-0.58 0.46 C44.16 0.66, 87.19 1.23, 176.16 0.53 M177.16 -0.18 C178.74 106.46, 178.46 213.89, 176.93 305.14 M176.94 0.43 C176.82 91.62, 176.26 182.55, 176.98 306.32 M177.2 307.19 C124.39 307.28, 69.33 305.29, -0.11 304.38 M177 305.15 C124.54 306.07, 72.58 306.07, -0.6 306.85 M-0.88 305.37 C1.74 231.5, 0.75 156.84, 0.57 -0.4 M-0.52 306.26 C-2.32 229.91, -2.08 153.4, -0.07 -0.41" stroke="#000000" stroke-width="4" fill="none"></path></g><g stroke-linecap="round"><g transform="translate(93.28875732421875 219.44414736619638) rotate(0 86.40059590674936 -0.4009530551543321)"><path d="M-0.87 -0.02 C28.04 -0.12, 144.73 -0.76, 173.67 -0.83 M0.88 -1.07 C29.68 -1.02, 144.62 -0.02, 173.13 0.27" stroke="#000000" stroke-width="4" fill="none"></path></g></g><g stroke-linecap="round"><g transform="translate(90.869873046875 398.6003363310401) rotate(0 88.05403856374322 -0.14552438093369346)"><path d="M-0.69 -0.46 C28.83 -0.6, 147.39 -0.15, 176.79 -0.06 M1.15 -1.74 C30.62 -1.75, 147.35 0.91, 176.31 1.45" stroke="#000000" stroke-width="4" fill="none"></path></g></g><g stroke-linecap="round"><g transform="translate(94.36981201171875 269.4164984404151) rotate(0 86.43951441521756 -0.4186584983299326)"><path d="M0.68 0.73 C29.63 0.6, 144.58 0.34, 173.3 0.37 M-0.42 0.06 C28.41 0.07, 143.6 -1.39, 172.35 -1.56" stroke="#000000" stroke-width="4" fill="none"></path></g></g><g transform="translate(105.3153076171875 169.06850649705575) rotate(0 76.70913818359344 15.719085693359375)"><text x="0" y="22.438171386718622" font-family="Virgil, Segoe UI Emoji" font-size="25.150537109374902px" fill="#000000" text-anchor="start" style="white-space: pre;" direction="ltr">Source Code</text></g><g transform="translate(141.36480712890625 221.39342318803074) rotate(0 48.0220947265625 21.20456130783282)"><text x="0" y="29.409122615665574" font-family="Virgil, Segoe UI Emoji" font-size="33.996028984754034px" fill="#000000" text-anchor="start" style="white-space: pre;" direction="ltr">Heap </text></g><g transform="translate(124.212890625 403.74378550013444) rotate(0 57.790523681640735 24.48751003459347)"><text x="0" y="34.975020069187025" font-family="Virgil, Segoe UI Emoji" font-size="39.18001605534963px" fill="#000000" text-anchor="start" style="white-space: pre;" direction="ltr">Stack</text></g><g stroke-linecap="round"><g transform="translate(176.72747802734375 270.23732973924325) rotate(0 0.0004419163595343889 26.226965693011834)"><path d="M0.58 -0.79 C0.42 7.92, -0.88 44.51, -1.08 53.24 M-0.57 1.41 C-0.37 10.33, 1.25 43.18, 1.07 51.72" stroke="#000000" stroke-width="4" fill="none"></path></g><g transform="translate(176.72747802734375 270.23732973924325) rotate(0 0.0004419163595343889 26.226965693011834)"><path d="M-9.6 25.6 C-3.46 33.45, -3.47 42.57, 2.26 52.05 M-8.91 27.61 C-5.08 35.28, -1.54 42.29, 0.46 51.83" stroke="#000000" stroke-width="4" fill="none"></path></g><g transform="translate(176.72747802734375 270.23732973924325) rotate(0 0.0004419163595343889 26.226965693011834)"><path d="M8.22 25.28 C9.15 33.31, 3.93 42.53, 2.26 52.05 M8.91 27.29 C6.94 35.07, 4.67 42.19, 0.46 51.83" stroke="#000000" stroke-width="4" fill="none"></path></g></g><g stroke-linecap="round"><g transform="translate(176.83111572265625 395.3819525419776) rotate(0 0.2375163414843371 -25.718189038140736)"><path d="M1.1 0.88 C1.25 -7.45, 0.55 -41.78, 0.22 -50.6 M0.21 0.29 C0.28 -8.32, -0.83 -43.76, -0.61 -52.31" stroke="#000000" stroke-width="4" fill="none"></path></g><g transform="translate(176.83111572265625 395.3819525419776) rotate(0 0.2375163414843371 -25.718189038140736)"><path d="M9.8 -27.88 C7.57 -35.51, 3.04 -38.68, -1.29 -51.24 M8.67 -27.92 C7.43 -32.79, 5.8 -37.52, -0.05 -51.96" stroke="#000000" stroke-width="4" fill="none"></path></g><g transform="translate(176.83111572265625 395.3819525419776) rotate(0 0.2375163414843371 -25.718189038140736)"><path d="M-7.76 -27.75 C-5.73 -35.58, -5.98 -38.78, -1.29 -51.24 M-8.9 -27.8 C-6.61 -32.81, -4.72 -37.56, -0.05 -51.96" stroke="#000000" stroke-width="4" fill="none"></path></g></g><g transform="translate(32.307891845703125 145.39440371385263) rotate(0 26.5 12.5)"><text x="0" y="18" font-family="Virgil, Segoe UI Emoji" font-size="20px" fill="#000000" text-anchor="start" style="white-space: pre;" direction="ltr">0 KB</text></g><g transform="translate(19.811065673828125 448.3348944365089) rotate(0 32 12.5)"><text x="0" y="18" font-family="Virgil, Segoe UI Emoji" font-size="20px" fill="#000000" text-anchor="start" style="white-space: pre;" direction="ltr">64 KB</text></g><g transform="translate(23.896728515625 205.81078554979013) rotate(0 28.5 12.5)"><text x="0" y="18" font-family="Virgil, Segoe UI Emoji" font-size="20px" fill="#000000" text-anchor="start" style="white-space: pre;" direction="ltr">16 KB</text></g><g transform="translate(10 262.3609259306495) rotate(0 33 12.5)"><text x="0" y="18" font-family="Virgil, Segoe UI Emoji" font-size="20px" fill="#000000" text-anchor="start" style="white-space: pre;" direction="ltr">24 KB</text></g><g transform="translate(14.110931396484375 388.3397162138526) rotate(0 32 12.5)"><text x="0" y="18" font-family="Virgil, Segoe UI Emoji" font-size="20px" fill="#000000" text-anchor="start" style="white-space: pre;" direction="ltr">56 KB</text></g><g transform="translate(56.5359118652342 12.035257595688563) rotate(0 141.68979644775413 25.00408172607422)"><text x="0" y="36.00816345214853" font-family="Virgil, Segoe UI Emoji" font-size="39.04651298433209px" fill="#000000" text-anchor="start" style="white-space: pre;" direction="ltr">Address Space</text></g><g transform="translate(600.7099957275391 10) rotate(0 189.01586700439452 47.018872389152875)"><text x="0" y="33.0188723891529" font-family="Virgil, Segoe UI Emoji" font-size="37.6150979113223px" fill="#000000" text-anchor="start" style="white-space: pre;" direction="ltr">Address Translation</text><text x="0" y="80.0377447783058" font-family="Virgil, Segoe UI Emoji" font-size="37.6150979113223px" fill="#000000" text-anchor="start" style="white-space: pre;" direction="ltr"></text></g><g transform="translate(639.9127502441406 53.37746645799325) rotate(0 145.71841613769539 18.875442504882812)"><text x="0" y="25.75088500976564" font-family="Virgil, Segoe UI Emoji" font-size="30.20070800781252px" fill="#000000" text-anchor="start" style="white-space: pre;" direction="ltr">(dynamic relocation)</text></g><g transform="translate(365.9403002929689 378.8060248076026) rotate(0 104.5 34.5)"><text x="0" y="24.5" font-family="Virgil, Segoe UI Emoji" font-size="27.403002929687467px" fill="#000000" text-anchor="start" style="white-space: pre;" direction="ltr">Virtual Address</text><text x="0" y="59" font-family="Virgil, Segoe UI Emoji" font-size="27.403002929687467px" fill="#000000" text-anchor="start" style="white-space: pre;" direction="ltr"></text></g><g stroke-linecap="round"><g transform="translate(588.2961537276135 419.36386151891566) rotate(0 55.835091811354175 -0.4523990738264274)"><path d="M0.07 -0.33 C19.03 -0.15, 94.27 0.53, 113.03 0.67 M-1.36 -1.55 C17.62 -1.68, 93.76 -1.1, 112.69 -1.11" stroke="#000000" stroke-width="4" fill="none"></path></g><g transform="translate(588.2961537276135 419.36386151891566) rotate(0 55.835091811354175 -0.4523990738264274)"><path d="M83.91 10.99 C92.24 7.91, 98.59 3.63, 113.91 -2.54 M85.22 8.79 C91.2 6.53, 98.71 3.62, 112.04 -1.22" stroke="#000000" stroke-width="4" fill="none"></path></g><g transform="translate(588.2961537276135 419.36386151891566) rotate(0 55.835091811354175 -0.4523990738264274)"><path d="M83.99 -9.53 C92.23 -7.77, 98.56 -7.22, 113.91 -2.54 M85.3 -11.73 C91.36 -8.47, 98.85 -5.85, 112.04 -1.22" stroke="#000000" stroke-width="4" fill="none"></path></g></g><g stroke-linecap="round" transform="translate(724.2447204589844 341.5275824247901) rotate(0 84.72311401367188 72.3511962890625)"><path d="M0.11 -1.07 C55.63 2.41, 113.04 1.78, 168.74 0.34 M0.93 -0.25 C66.91 -1.79, 132.87 -0.98, 170.02 0.5 M167.46 -1.63 C170.23 40.95, 167.55 83.42, 169.05 145.12 M170.18 -0.41 C169.77 34.31, 169.53 69.87, 170.34 144.25 M171.18 146.68 C115.92 145.82, 61.92 143.62, 0.81 144.06 M169.55 144.23 C127.79 143.11, 85.33 143.19, 0.71 145.37 M0.76 144.2 C0.5 112.42, 2.57 82.85, 1.13 -1.25 M-0.31 145.21 C-2.15 94.99, -0.67 46.76, 0.33 -0.88" stroke="#000000" stroke-width="4" fill="none"></path></g><g transform="translate(750.2559509277344 346.69488628117324) rotate(0 54.60278320312494 29.044033618683443)"><text x="0" y="40.08806723736697" font-family="Virgil, Segoe UI Emoji" font-size="46.47045378989359px" fill="#000000" text-anchor="start" style="white-space: pre;" direction="ltr">MMU</text></g><g stroke-linecap="round"><g transform="translate(914.2945617663256 416.72826476516) rotate(0 54.68108091677766 0.7598898405597083)"><path d="M-0.24 0.71 C17.83 0.64, 91.09 0.44, 109.61 0.5 M1.83 0.04 C19.62 0, 90.41 1.14, 108.54 1.48" stroke="#000000" stroke-width="4" fill="none"></path></g><g transform="translate(914.2945617663256 416.72826476516) rotate(0 54.68108091677766 0.7598898405597083)"><path d="M81.36 10.87 C89.58 9.12, 101.73 3.1, 107.01 0.65 M80.22 11.6 C87.33 7.91, 95.37 5.96, 107.74 1.34" stroke="#000000" stroke-width="4" fill="none"></path></g><g transform="translate(914.2945617663256 416.72826476516) rotate(0 54.68108091677766 0.7598898405597083)"><path d="M81.71 -9.64 C89.95 -3.27, 101.97 -1.16, 107.01 0.65 M80.56 -8.92 C87.48 -6.83, 95.42 -3, 107.74 1.34" stroke="#000000" stroke-width="4" fill="none"></path></g></g><g transform="translate(1045.2731628417969 374.3079168974464) rotate(0 106.25165161132804 16.001754760742188)"><text x="0" y="23.003509521484368" font-family="Virgil, Segoe UI Emoji" font-size="25.602807617187487px" fill="#000000" text-anchor="start" style="white-space: pre;" direction="ltr">Physical Address</text></g><g stroke-linecap="round"><g transform="translate(367.1573791503906 415.9434149443214) rotate(0 101.40163023732606 -1.1935951936802667)"><path d="M-0.48 -0.01 C33.45 -0.04, 169.61 -0.35, 203.28 -0.75 M1.47 -1.06 C35.36 -1.36, 169.73 -2.31, 202.9 -2.37" stroke="#000000" stroke-width="4" fill="none"></path></g></g><g stroke-linecap="round"><g transform="translate(1048.2924499511719 414.5176947294776) rotate(0 107.7364581837785 -1.052223365409418)"><path d="M0.05 -0.03 C36.33 -0.09, 180.62 -0.24, 216.85 -0.21 M-1.38 -1.09 C34.77 -1.53, 179.35 -1.96, 215.72 -2.08" stroke="#000000" stroke-width="4" fill="none"></path></g></g><g transform="translate(402.0129016113285 425.2446234404151) rotate(0 60.462070312499804 13.995849609375)"><text x="0" y="18.991699218749915" font-family="Virgil, Segoe UI Emoji" font-size="22.39335937499994px" fill="#000000" text-anchor="start" style="white-space: pre;" direction="ltr">Adds Base</text></g><g transform="translate(1074.7793884277344 420.3341620146339) rotate(0 82 15.5)"><text x="0" y="22" font-family="Virgil, Segoe UI Emoji" font-size="24.331863064236305px" fill="#000000" text-anchor="start" style="white-space: pre;" direction="ltr">Within Bounds</text></g><g transform="translate(744.8545837402344 398.6660711943214) rotate(0 59 37.5)"><text x="0" y="18" font-family="Virgil, Segoe UI Emoji" font-size="20px" fill="#000000" text-anchor="start" style="white-space: pre;" direction="ltr">  Memory </text><text x="0" y="43" font-family="Virgil, Segoe UI Emoji" font-size="20px" fill="#000000" text-anchor="start" style="white-space: pre;" direction="ltr">Management</text><text x="0" y="68" font-family="Virgil, Segoe UI Emoji" font-size="20px" fill="#000000" text-anchor="start" style="white-space: pre;" direction="ltr">   Unit</text></g><g transform="translate(387.2073059082031 142.34499575486825) rotate(0 59 19)"><text x="0" y="27" font-family="Virgil, Segoe UI Emoji" font-size="29.937158203124987px" fill="#000000" text-anchor="start" style="white-space: pre;" direction="ltr">Program</text></g><g transform="translate(347.9380798339844 191.33666445604013) rotate(0 94 12.5)"><text x="0" y="18" font-family="Virgil, Segoe UI Emoji" font-size="20px" fill="#000000" text-anchor="start" style="white-space: pre;" direction="ltr">fetches instruction</text></g><g stroke-linecap="round"><g transform="translate(352.22137451171875 185.446008938462) rotate(0 90.81781358225271 -0.2263730065060372)"><path d="M0.2 -0.63 C30.36 -0.83, 150.21 -1.86, 180.58 -2.11 M-1.15 1.66 C29.41 1.64, 152.25 -0.64, 182.79 -1.14" stroke="#000000" stroke-width="4" fill="none"></path></g></g><g stroke-linecap="round"><g transform="translate(446.2408142089844 235.46923281541513) rotate(0 -0.4761259760707617 59.40959967123331)"><path d="M0.99 -0.31 C0.65 19.64, -1.54 99.13, -1.94 118.96 M0.05 -1.52 C0.07 18.67, 0.64 100.13, 0.22 120.34" stroke="#000000" stroke-width="4" fill="none"></path></g><g transform="translate(446.2408142089844 235.46923281541513) rotate(0 -0.4761259760707617 59.40959967123331)"><path d="M-10.42 90.37 C-7.48 99.77, -4.81 107.8, -1.16 119.04 M-9.16 92.13 C-5.67 102.91, -4.02 111.37, 0.54 121.12" stroke="#000000" stroke-width="4" fill="none"></path></g><g transform="translate(446.2408142089844 235.46923281541513) rotate(0 -0.4761259760707617 59.40959967123331)"><path d="M10.1 90.47 C6.76 100.01, 3.15 108.01, -1.16 119.04 M11.36 92.23 C7.75 102.91, 2.28 111.34, 0.54 121.12" stroke="#000000" stroke-width="4" fill="none"></path></g></g><g transform="translate(1100.6798826518811 141.1453955351417) rotate(0 45.63162392064146 21.1463623046875)"><text x="0" y="30.292724609375007" font-family="Virgil, Segoe UI Emoji" font-size="33.319052301896214px" fill="#000000" text-anchor="start" style="white-space: pre;" direction="ltr">Data</text></g><g stroke-linecap="round"><g transform="translate(1152.6510002345647 359.31472231736825) rotate(0 -0.1493678833718377 -70.09613459120442)"><path d="M-1.19 0.45 C-0.88 -23.1, 0.32 -117.05, 0.89 -140.64 M0.38 -0.36 C0.59 -23.81, -0.52 -116.08, -0.25 -139.4" stroke="#000000" stroke-width="4" fill="none"></path></g><g transform="translate(1152.6510002345647 359.31472231736825) rotate(0 -0.1493678833718377 -70.09613459120442)"><path d="M10.8 -111.84 C6.73 -115.79, 3.78 -125.38, -1.29 -140.7 M9.87 -110.8 C7.28 -119.71, 3.08 -128.99, -0.52 -139.74" stroke="#000000" stroke-width="4" fill="none"></path></g><g transform="translate(1152.6510002345647 359.31472231736825) rotate(0 -0.1493678833718377 -70.09613459120442)"><path d="M-9.72 -111.81 C-9.34 -115.56, -7.83 -125.16, -1.29 -140.7 M-10.65 -110.76 C-7.07 -119.51, -5.1 -128.8, -0.52 -139.74" stroke="#000000" stroke-width="4" fill="none"></path></g></g><g stroke-linecap="round"><g transform="translate(555.8260767747764 182.47205793375588) rotate(0 234.98104802457965 0.5142748287969425)"><path d="M-0.83 0.71 C77.52 0.78, 392.1 0.53, 470.79 0.31" stroke="#000000" stroke-width="4.5" fill="none" stroke-dasharray="1.5 10"></path></g><g transform="translate(555.8260767747764 182.47205793375588) rotate(0 234.98104802457965 0.5142748287969425)"><path d="M443.8 9.09 C453.3 6.48, 461.87 4.92, 470.2 1.71" stroke="#000000" stroke-width="4.5" fill="none" stroke-dasharray="1.5 8"></path></g><g transform="translate(555.8260767747764 182.47205793375588) rotate(0 234.98104802457965 0.5142748287969425)"><path d="M443.77 -11.43 C453.26 -6.66, 461.85 -0.85, 470.2 1.71" stroke="#000000" stroke-width="4.5" fill="none" stroke-dasharray="1.5 8"></path></g></g><g stroke-linecap="round"><g transform="translate(1052.1286315917969 182.22057558885263) rotate(0 96.83388342942112 -0.48541370443263077)"><path d="M-0.35 0.08 C31.55 -0.13, 159.71 -1.08, 191.85 -1.05 M1.66 -0.93 C33.89 -1.03, 162.38 -0.5, 194.02 -0.06" stroke="#000000" stroke-width="4" fill="none"></path></g></g><g transform="translate(1059.0912780761719 183.19164492479013) rotate(0 101 12.5)"><text x="0" y="18" font-family="Virgil, Segoe UI Emoji" font-size="20px" fill="#000000" text-anchor="start" style="white-space: pre;" direction="ltr">executes instruction</text></g></svg>