<svg version="1.1" xmlns="http://www.w3.org/2000/svg" viewBox="0 0 2266.9990516667144 1069.3396701416673" width="4533.998103333429" height="2138.6793402833346">
  <!-- svg-source:excalidraw -->
  
  <defs>
    <style>
      @font-face {
        font-family: "Virgil";
        src: url("https://excalidraw.com/Virgil.woff2");
      }
      @font-face {
        font-family: "Cascadia";
        src: url("https://excalidraw.com/Cascadia.woff2");
      }
    </style>
  </defs>
  <g stroke-linecap="round" transform="translate(1596.726513907915 10) rotate(0 184.5 41)"><path d="M0.24 -0.67 C86.13 0.73, 173.71 1.8, 369.74 0.91 M0.41 -0.51 C100.55 -1.21, 201.69 -0.4, 369.54 0.19 M369.12 -1.79 C367.92 33.68, 367.78 63.34, 367.03 81.73 M369.1 0.13 C368.48 18.18, 369.58 36.65, 369.07 81.08 M368 81.51 C261.81 83.76, 155.63 84.19, -0.26 82.76 M368.78 82.3 C281.31 84.47, 192.35 84.74, -0.2 81.47 M0.04 83.39 C-0.38 56.54, -0.99 29.16, 0.03 1.15 M0.61 82.62 C-0.19 59.8, -0.62 35.67, 0.29 -0.17" stroke="#000000" stroke-width="4" fill="none"></path></g><g transform="translate(1666.226513907915 28) rotate(0 115 23)"><text x="115" y="32" font-family="Virgil, Segoe UI Emoji" font-size="36px" fill="#000000" text-anchor="middle" style="white-space: pre;" direction="ltr">Segmentation</text></g><g stroke-linecap="round" transform="translate(900.9886065835973 290.47312497778023) rotate(0 225.5 83)"><path d="M-0.69 0.47 C123.85 -2.26, 248.69 -1.42, 451.18 0.78 M-0.15 0.4 C178.4 2.43, 357.39 2.38, 450.96 0.22 M449.65 -1.23 C453.04 37.81, 453.97 76.64, 452.5 166.89 M450.52 -0.69 C449.57 63.82, 449.21 128.75, 450.93 165.56 M451.76 165.46 C271.79 167.54, 92.75 167.1, 0.67 165.18 M451.33 166.09 C290.77 166.57, 130.76 165.92, 0.25 166.38 M-0.73 164.39 C1.1 107.47, 1.07 51.35, -0.56 -1.11 M-0.59 166.78 C-2 130.18, -0.76 93.35, 0.99 -0.14" stroke="#000000" stroke-width="4" fill="none"></path></g><g transform="translate(1088.9886065835972 350.47312497778023) rotate(0 37.5 23)"><text x="37.5" y="32" font-family="Virgil, Segoe UI Emoji" font-size="36px" fill="#000000" text-anchor="middle" style="white-space: pre;" direction="ltr">CPU</text></g><g stroke-linecap="round" transform="translate(980.9730995344656 639.9143931140525) rotate(0 136.20738616057133 124.18284540090622)"><path d="M1.29 -0.91 C60.25 -0.54, 121.57 -1.09, 271.36 -0.15 M0.23 -0.08 C96.22 -0.13, 194.41 0.57, 272.53 0.66 M272.51 1.33 C271.66 59.61, 272.94 122.93, 273.19 248.7 M273.15 -0.63 C270.28 75.95, 270.23 150.93, 272.43 248.94 M271.01 249.27 C207.9 249.24, 146 248.97, -0.65 249.12 M272.24 248.74 C187.55 247.58, 102.65 247.05, -0.1 248.26 M1.49 246.96 C1.5 193.56, 0.68 142.16, 0.14 0.66 M-0.17 247.9 C-1.99 176.55, -0.93 103.96, 0.72 -0.58" stroke="#000000" stroke-width="4" fill="none"></path></g><g transform="translate(994.7781264846898 899.472971163023) rotate(0 121 12.5)"><text x="0" y="18" font-family="Virgil, Segoe UI Emoji" font-size="20px" fill="#000000" text-anchor="start" style="white-space: pre;" direction="ltr">Physical Address Space </text></g><g stroke-linecap="round"><g transform="translate(980.1579412721638 695.1369338604618) rotate(0 135.1146127450013 -0.25343928686618256)"><path d="M-0.99 -0.62 C43.93 -1.09, 223.82 -1.98, 269.08 -2.17 M0.7 1.66 C46 1.35, 226.32 0.33, 271.22 -0.6" stroke="#000000" stroke-width="4" fill="none"></path></g></g><g stroke-linecap="round"><g transform="translate(980.5655204033145 761.716593824674) rotate(0 134.92950416034205 -4.041088819269987)"><path d="M-1.1 -0.27 C43.89 -1.63, 225.59 -6.71, 270.96 -7.81 M0.52 -1.46 C45.33 -2.75, 225.37 -6.16, 270.42 -6.85" stroke="#000000" stroke-width="4" fill="none"></path></g></g><g stroke-linecap="round" transform="translate(2030.292926427741 296.9828639508106) rotate(0 108.29603653750337 82.617594884281)"><path d="M1.56 -1.33 C68.93 1.11, 137.18 0.61, 216.08 -1.34 M-0.11 0.41 C70.46 -1.14, 139.79 -1.4, 216.44 0 M218.35 1.62 C217.1 63.6, 218.35 125.52, 215.2 163.45 M215.71 -0.54 C216.02 52.6, 215.91 105.98, 216.23 165.31 M217.84 164.63 C164.07 164.81, 113.4 166.06, -1.34 165.59 M216.35 165.95 C152.24 162.98, 86.62 163.52, 0.81 164.38 M0.1 165.91 C-2.46 108.61, -2.25 51, 0.81 0.64 M-0.53 164.63 C0.04 121.62, -0.19 77.52, 0.14 -0.71" stroke="#000000" stroke-width="4" fill="none"></path></g><g stroke-linecap="round" transform="translate(1637.0103712382488 352.1170328028594) rotate(0 120.57703037165334 31.26071157783599)"><path d="M1.02 0.36 C87.43 0.51, 173.48 -0.73, 240.92 -1.53 M-0.39 -0.21 C66.99 1.11, 132.81 1.3, 241.72 0.48 M241.61 1.8 C241.41 21.33, 241.16 41.98, 242.48 61.77 M241.64 -0.29 C241.15 23.58, 242.26 46.1, 240.34 62.01 M241.78 63.77 C172.75 60.91, 105.22 60.9, -0.42 61.49 M240.88 62.93 C148.28 64.48, 53.34 64.2, -0.61 61.81 M0.39 62.89 C-2.2 45.83, -0.19 26.76, 1.9 -1.43 M0.39 62.01 C0.11 48.63, 0.29 35.55, 0.85 0.34" stroke="#000000" stroke-width="4" fill="none"></path></g><g stroke-linecap="round"><g transform="translate(1751.3585194940706 353.93824947833923) rotate(0 1.8132163791200355 30.838241874988682)"><path d="M-0.27 -0.58 C0.11 9.6, 1.01 50.88, 1.54 61.34 M1.8 1.73 C2.62 11.98, 3.77 52, 3.89 62.26" stroke="#000000" stroke-width="4" fill="none"></path></g></g><g transform="translate(1813.4101008560378 369.91192844100453) rotate(0 7 12.5)"><text x="0" y="18" font-family="Virgil, Segoe UI Emoji" font-size="20px" fill="#000000" text-anchor="start" style="white-space: pre;" direction="ltr">S</text></g><g transform="translate(1682.5628632192643 370.80626102511144) rotate(0 6.5 12.5)"><text x="0" y="18" font-family="Virgil, Segoe UI Emoji" font-size="20px" fill="#000000" text-anchor="start" style="white-space: pre;" direction="ltr">d</text></g><g stroke-linecap="round"><g transform="translate(1368.5886065835975 373.20261885807804) rotate(0 129.17893446002347 3.922818752721568)"><path d="M0.3 0.54 C43.38 2.08, 216.45 7.06, 259.36 8.07 M-1 -0.22 C41.91 1.07, 215.94 5, 258.88 6.29" stroke="#000000" stroke-width="4" fill="none"></path></g><g transform="translate(1368.5886065835975 373.20261885807804) rotate(0 129.17893446002347 3.922818752721568)"><path d="M231.34 17.31 C242.3 11.02, 250.57 7.66, 260.68 6.17 M229.74 16.57 C239.66 12.45, 249 8.74, 258.9 6.95" stroke="#000000" stroke-width="4" fill="none"></path></g><g transform="translate(1368.5886065835975 373.20261885807804) rotate(0 129.17893446002347 3.922818752721568)"><path d="M231.87 -3.2 C242.43 -1.79, 250.5 2.56, 260.68 6.17 M230.27 -3.95 C239.95 -1.29, 249.11 1.77, 258.9 6.95" stroke="#000000" stroke-width="4" fill="none"></path></g></g><g stroke-linecap="round"><g transform="translate(2032.9158590257675 351.38590070797886) rotate(0 103.71163590077083 -0.5110236725583661)"><path d="M0.13 0.33 C35.1 0.41, 173.92 0.37, 208.69 0.44 M-1.26 -0.54 C33.71 -0.83, 173.13 -1.34, 208.05 -1.46" stroke="#000000" stroke-width="4" fill="none"></path></g></g><g stroke-linecap="round"><g transform="translate(2027.439872509684 393.3684639979517) rotate(0 110.25086412882104 -0.3278182473740685)"><path d="M1.09 0.41 C37.32 0.31, 181.62 0.67, 218.09 0.59 M0.2 -0.42 C36.73 -0.37, 183.73 -1.49, 220.3 -1.22" stroke="#000000" stroke-width="4" fill="none"></path></g></g><g stroke-linecap="round"><g transform="translate(2126.0076297991855 296.6260355471446) rotate(0 0.37343877054672703 80.91964640147279)"><path d="M-0.58 -1.08 C-0.45 26.12, 0.69 135.79, 0.7 162.92 M1.32 0.96 C1.35 27.83, 0.6 134.1, 0.13 161.05" stroke="#000000" stroke-width="4" fill="none"></path></g></g><g transform="translate(2062.121120444879 364.28984677231244) rotate(0 20 12.5)"><text x="0" y="18" font-family="Virgil, Segoe UI Emoji" font-size="20px" fill="#000000" text-anchor="start" style="white-space: pre;" direction="ltr">limit</text></g><g transform="translate(2133.3794321429464 364.964517933618) rotate(0 55.5 10)"><text x="0" y="14" font-family="Virgil, Segoe UI Emoji" font-size="16px" fill="#000000" text-anchor="start" style="white-space: pre;" direction="ltr">Base Address</text></g><g transform="translate(2060.2957916061846 466.5082617392029) rotate(0 72.5 12.5)"><text x="0" y="18" font-family="Virgil, Segoe UI Emoji" font-size="20px" fill="#000000" text-anchor="start" style="white-space: pre;" direction="ltr">Segment Table</text></g><g stroke-linecap="round"><g transform="translate(1689.279409519229 419.49429652640345) rotate(0 2.243918023096967 54.526680143770335)"><path d="M0.79 -0.27 C1.32 17.79, 1.96 90.74, 2.61 108.91 M-0.25 -1.46 C0.68 16.76, 3.95 91.92, 4.74 110.51" stroke="#000000" stroke-width="4" fill="none"></path></g><g transform="translate(1689.279409519229 419.49429652640345) rotate(0 2.243918023096967 54.526680143770335)"><path d="M-7.18 80.94 C-3.52 91.39, -0.84 98.47, 4.37 110.41 M-6.81 82.33 C-2.75 91.99, 1.62 99.88, 3.9 109.9" stroke="#000000" stroke-width="4" fill="none"></path></g><g transform="translate(1689.279409519229 419.49429652640345) rotate(0 2.243918023096967 54.526680143770335)"><path d="M13.33 80.05 C11.82 90.86, 9.33 98.16, 4.37 110.41 M13.7 81.44 C11.08 91.36, 8.77 99.54, 3.9 109.9" stroke="#000000" stroke-width="4" fill="none"></path></g></g><g stroke-linecap="round" transform="translate(1641.7705015652095 534.8108712520113) rotate(0 52.021871902792554 62.061180515612136)"><path d="M52.74 -1.8 C71.53 23.18, 89.61 42.19, 103.26 64.86 M52.16 0.61 C64.4 13.43, 74.68 26.31, 104.77 63.04 M105.44 61.38 C93.77 75.1, 82.33 89.65, 52.76 126.12 M104.33 62.64 C90.15 79.13, 75.74 96.24, 53.73 124.89 M54.18 125.9 C34.61 105.4, 17.98 85.57, 1.2 64.48 M52.07 123.16 C31.35 98.94, 10.31 75.43, -0.14 63.23 M0.35 64.9 C8.83 51.14, 20.08 37.15, 52.82 -1.11 M-0.07 63.09 C14.02 46.85, 28.95 29.36, 52.48 -0.49" stroke="#000000" stroke-width="4" fill="none"></path></g><g transform="translate(1648.792373468002 584.3720517676235) rotate(0 45 12.5)"><text x="45" y="18" font-family="Virgil, Segoe UI Emoji" font-size="20px" fill="#000000" text-anchor="middle" style="white-space: pre;" direction="ltr">d &lt; Limit</text></g><g transform="translate(1771.1631990680116 609.0142849966619) rotate(0 17 12.5)"><text x="0" y="18" font-family="Virgil, Segoe UI Emoji" font-size="20px" fill="#000000" text-anchor="start" style="white-space: pre;" direction="ltr">Yes</text></g><g stroke-linecap="round"><g transform="translate(1636.173645861531 597.8691460914945) rotate(0 -40.96666217065456 2.0670417918548196)"><path d="M-0.03 0.4 C-13.7 0.8, -68.45 2.5, -81.9 3.08 M-1.51 -0.44 C-14.79 0.09, -66.26 4.19, -79.54 4.57" stroke="#000000" stroke-width="4" fill="none"></path></g><g transform="translate(1636.173645861531 597.8691460914945) rotate(0 -40.96666217065456 2.0670417918548196)"><path d="M-51.31 -8.39 C-60.53 -2.79, -67.72 0.17, -78.82 5.19 M-52.13 -6.57 C-57.88 -5.54, -64.59 -2.07, -79.33 4.41" stroke="#000000" stroke-width="4" fill="none"></path></g><g transform="translate(1636.173645861531 597.8691460914945) rotate(0 -40.96666217065456 2.0670417918548196)"><path d="M-50.15 12.09 C-59.84 11.4, -67.39 8.07, -78.82 5.19 M-50.97 13.92 C-57.04 10.24, -64.01 9.01, -79.33 4.41" stroke="#000000" stroke-width="4" fill="none"></path></g></g><g transform="translate(1594.4195223371548 567.1546589475954) rotate(0 13 12.5)"><text x="0" y="18" font-family="Virgil, Segoe UI Emoji" font-size="20px" fill="#000000" text-anchor="start" style="white-space: pre;" direction="ltr">No</text></g><g stroke-linecap="round" transform="translate(1426.6581400232353 569.233403329736) rotate(0 56.585193999528656 31.943254677153277)"><path d="M-0.95 -0.24 C37.75 0.76, 76.51 -0.46, 111.91 1.67 M0.9 0.47 C25.91 -0.25, 50.89 0.61, 113.08 0.93 M111.27 0.2 C111.88 19.88, 111.47 38.2, 115.02 62.44 M112.77 -0.87 C112.7 15.64, 113.22 29.15, 113.87 64.81 M113.35 63.37 C84.14 66.08, 59.58 65.71, 1.14 64.83 M113.03 64.72 C90.36 62.96, 66.92 62.52, 0.52 64.8 M-1.45 62.82 C1.42 41.74, -0.76 23.86, -1.03 -1.48 M0.35 63.06 C0.6 45.41, -0.09 24.64, -0.68 -0.29" stroke="#000000" stroke-width="4" fill="none"></path></g><g transform="translate(1457.243334022764 588.6766580068893) rotate(0 26 12.5)"><text x="26" y="18" font-family="Virgil, Segoe UI Emoji" font-size="20px" fill="#000000" text-anchor="middle" style="white-space: pre;" direction="ltr">Error</text></g><g stroke-linecap="round"><g transform="translate(2255.868774726948 377.71464376657786) rotate(0 -160.83709337750474 154.49578661048466)"><path d="M0.84 -0.82 C-4.88 40.2, 18.42 194.41, -35.35 245.96 C-89.12 297.51, -274.04 297.9, -321.77 308.49 M-0.18 1.37 C-5.87 42.56, 18.08 195.86, -35.69 247.26 C-89.46 298.67, -275.13 299.77, -322.8 309.81" stroke="#000000" stroke-width="4" fill="none"></path></g><g transform="translate(2255.868774726948 377.71464376657786) rotate(0 -160.83709337750474 154.49578661048466)"><path d="M-297.3 298.38 C-302.51 298.67, -307.53 301.62, -321.11 311.03 M-295.34 296.05 C-304.98 299.65, -312.85 304.88, -322.56 309.73" stroke="#000000" stroke-width="4" fill="none"></path></g><g transform="translate(2255.868774726948 377.71464376657786) rotate(0 -160.83709337750474 154.49578661048466)"><path d="M-295 318.78 C-300.68 314.68, -306.2 313.24, -321.11 311.03 M-293.04 316.44 C-303.52 313.45, -312.14 312.1, -322.56 309.73" stroke="#000000" stroke-width="4" fill="none"></path></g></g><g stroke-linecap="round" transform="translate(1837.605673285459 650.7398302538725) rotate(0 44.72055654801443 37.419241193236644)"><path d="M58.88 1.89 C66.34 3.27, 74.74 8.51, 79.72 13.9 C84.7 19.3, 87.82 27.66, 88.74 34.26 C89.66 40.86, 88.62 47.55, 85.23 53.51 C81.84 59.47, 75.29 66.5, 68.39 70.02 C61.49 73.55, 51.92 75.02, 43.81 74.64 C35.71 74.25, 26.45 71.45, 19.75 67.71 C13.05 63.97, 6.65 58.4, 3.61 52.2 C0.57 46.01, 0.17 37.33, 1.51 30.54 C2.86 23.75, 6.25 16.31, 11.68 11.47 C17.1 6.63, 25.27 2.82, 34.08 1.51 C42.9 0.2, 58.66 2.74, 64.55 3.61 C70.43 4.48, 69.7 6.02, 69.42 6.74 M28.33 1.8 C35.2 -1.02, 46.13 0.12, 54.07 1.66 C62 3.19, 70.24 6.53, 75.95 11.02 C81.66 15.51, 86.42 22.31, 88.34 28.6 C90.25 34.88, 90.18 42.22, 87.46 48.71 C84.74 55.2, 78.29 63.46, 72.03 67.55 C65.77 71.64, 57.91 72.83, 49.91 73.26 C41.91 73.69, 31.38 73.11, 24.01 70.14 C16.65 67.16, 9.77 61.21, 5.72 55.4 C1.66 49.59, -0.83 41.6, -0.31 35.28 C0.2 28.96, 4.27 23.1, 8.78 17.5 C13.3 11.9, 23.7 3.9, 26.76 1.7 C29.81 -0.49, 26.57 3.41, 27.12 4.33" stroke="#000000" stroke-width="4" fill="none"></path></g><g transform="translate(1863.3262298334735 675.6590714471091) rotate(0 19 12.5)"><text x="19" y="18" font-family="Virgil, Segoe UI Emoji" font-size="20px" fill="#000000" text-anchor="middle" style="white-space: pre;" direction="ltr">Add</text></g><g stroke-linecap="round"><g transform="translate(1833.1885540562444 690.9471490111371) rotate(0 -283.60823158471067 3.609910874511172)"><path d="M-0.73 0.18 C-95.5 1.7, -473.34 6.63, -567.8 7.99 M1.09 -0.77 C-93.84 0.48, -473.51 4.89, -568.3 6.08" stroke="#000000" stroke-width="4" fill="none"></path></g><g transform="translate(1833.1885540562444 690.9471490111371) rotate(0 -283.60823158471067 3.609910874511172)"><path d="M-539.93 -3.1 C-550.01 1.13, -559.79 3.59, -567.61 6.92 M-539.36 -5.49 C-550.82 -0.39, -559.61 2.43, -567.98 6.49" stroke="#000000" stroke-width="4" fill="none"></path></g><g transform="translate(1833.1885540562444 690.9471490111371) rotate(0 -283.60823158471067 3.609910874511172)"><path d="M-539.68 17.42 C-549.66 14.07, -559.53 8.95, -567.61 6.92 M-539.11 15.03 C-550.7 12.7, -559.58 8.1, -567.98 6.49" stroke="#000000" stroke-width="4" fill="none"></path></g></g><g transform="translate(1322.120293329789 981.9152185010271) rotate(0 323.5 25)"><text x="0" y="18" font-family="Virgil, Segoe UI Emoji" font-size="20px" fill="#000000" text-anchor="start" style="white-space: pre;" direction="ltr">S: Number of bits required to represent the segment.</text><text x="0" y="43" font-family="Virgil, Segoe UI Emoji" font-size="20px" fill="#000000" text-anchor="start" style="white-space: pre;" direction="ltr">d: Number of bits required to represent the size of the segment.</text></g><g stroke-linecap="round"><g transform="translate(1886.7995120442893 401.2659681873534) rotate(0 66.80026363311686 -11.223779336877428)"><path d="M0.96 0.54 C22.91 -3.36, 109.47 -19.11, 131.42 -22.99 M0 -0.21 C22.34 -3.95, 111.6 -17.95, 133.6 -21.47" stroke="#000000" stroke-width="4" fill="none"></path></g><g transform="translate(1886.7995120442893 401.2659681873534) rotate(0 66.80026363311686 -11.223779336877428)"><path d="M108.27 -8.62 C114.5 -10.81, 122.16 -15.99, 132.8 -20.44 M106.51 -6.39 C117.17 -12.11, 125.91 -17.98, 133.39 -21.47" stroke="#000000" stroke-width="4" fill="none"></path></g><g transform="translate(1886.7995120442893 401.2659681873534) rotate(0 66.80026363311686 -11.223779336877428)"><path d="M105.06 -28.88 C112.25 -25.52, 120.79 -25.12, 132.8 -20.44 M103.3 -26.66 C114.96 -25.4, 124.8 -24.29, 133.39 -21.47" stroke="#000000" stroke-width="4" fill="none"></path></g></g><g stroke-linecap="round"><g transform="translate(1757.954435430233 595.4837877025293) rotate(0 35.217452132975495 40.40059752476432)"><path d="M0.07 -0.42 C10.7 0.79, 50.99 -5.95, 62.94 8.01 C74.9 21.97, 70.29 70.8, 71.79 83.34 M-1.36 -1.68 C9.22 -0.86, 50.13 -7.43, 62.17 6.4 C74.21 20.22, 69.21 68.24, 70.87 81.27" stroke="#000000" stroke-width="4" fill="none"></path></g><g transform="translate(1757.954435430233 595.4837877025293) rotate(0 35.217452132975495 40.40059752476432)"><path d="M59.42 53.82 C64.37 59.15, 66.07 65.85, 71.59 80.81 M59.59 53.35 C62.07 60.51, 66.4 66.45, 70.98 80.69" stroke="#000000" stroke-width="4" fill="none"></path></g><g transform="translate(1757.954435430233 595.4837877025293) rotate(0 35.217452132975495 40.40059752476432)"><path d="M79.94 53.46 C80.22 58.89, 77.24 65.66, 71.59 80.81 M80.11 52.99 C77.56 60.27, 76.87 66.31, 70.98 80.69" stroke="#000000" stroke-width="4" fill="none"></path></g></g><g transform="translate(32.138132921828344 984.3396701416673) rotate(0 574 37.5)"><text x="0" y="18" font-family="Virgil, Segoe UI Emoji" font-size="20px" fill="#000000" text-anchor="start" style="white-space: pre;" direction="ltr">P: A page number, used as an index into a page table which contains base address of each page in physical memory</text><text x="0" y="43" font-family="Virgil, Segoe UI Emoji" font-size="20px" fill="#000000" text-anchor="start" style="white-space: pre;" direction="ltr">O: A page offset, combined with base address to define the physical address</text><text x="0" y="68" font-family="Virgil, Segoe UI Emoji" font-size="20px" fill="#000000" text-anchor="start" style="white-space: pre;" direction="ltr"></text></g><g stroke-linecap="round" transform="translate(247.59441642899003 43.03947343997163) rotate(0 202.89927277097252 37.208299396238374)"><path d="M-0.81 0.37 C110.65 -1.16, 221.12 -1.97, 405.63 0.62 M0.22 0.26 C97.61 1, 195.63 0.89, 405.51 -0.37 M406.71 1.98 C405.54 18.02, 407.23 32.8, 407.19 74.62 M406.1 -0.64 C406.83 28.19, 405.46 55.46, 406.39 74.32 M405.24 73.64 C299.47 75.13, 194.81 75.92, 0.53 74.8 M405.45 74.15 C259.21 74.14, 111.85 74.67, -0.46 74.03 M1.34 74.67 C0.02 45.25, 1.9 14.29, 1.41 1.84 M-0.29 74.09 C0.36 51.72, 0.18 27.18, 0.08 -0.46" stroke="#000000" stroke-width="4" fill="none"></path></g><g transform="translate(385.4637457763795 56.78079555988019) rotate(0 55.5 22.5)"><text x="0" y="32" font-family="Virgil, Segoe UI Emoji" font-size="36px" fill="#000000" text-anchor="start" style="white-space: pre;" direction="ltr">Paging</text></g><g stroke-linecap="round" transform="translate(1662.3770170887842 373.8070955633608) rotate(0 5.468860103839916 8.593923020319892)"><path d="M6.04 -0.05 C6.04 -0.05, 6.04 -0.05, 6.04 -0.05 M6.04 -0.05 C6.04 -0.05, 6.04 -0.05, 6.04 -0.05" stroke="#4c6ef5" stroke-width="2" fill="none"></path><path d="M5.91 0.92 C7.95 2.9, 7.73 4.88, 11.67 9.98 M6.11 -0.14 C7.7 3.13, 9.23 7.18, 11.25 8.53 M11.18 9.32 C8.98 11.28, 7.87 15.65, 6.1 17.29 M10.54 8.56 C9.94 11.4, 8.01 13.4, 6.43 17.41 M6.53 17.62 C4.07 14.01, 2.11 10.19, 0.04 9.5 M6.09 17 C4.02 14.77, 2.3 13.08, 0.37 8.82 M-0.87 8.8 C1.94 7.86, 2.63 4.4, 6 -0.23 M-0.52 8.75 C1.78 7.29, 2.51 5.12, 5.66 0.03" stroke="#364fc7" stroke-width="4" fill="none"></path></g><g stroke-linecap="round" transform="translate(1783.473205102383 374.5883612924807) rotate(0 5.468860103839916 8.593923020319892)"><path d="M6.04 -0.05 C6.04 -0.05, 6.04 -0.05, 6.04 -0.05 M6.04 -0.05 C6.04 -0.05, 6.04 -0.05, 6.04 -0.05" stroke="#fab005" stroke-width="2" fill="none"></path><path d="M6.63 -0.94 C7.65 2.2, 8.88 4.74, 11.28 8.74 M6.05 0.06 C7.14 2.04, 8.16 3.8, 10.46 9.46 M11.8 9.44 C10.3 12, 7 14.65, 6.41 17.65 M10.95 9.24 C9.35 11.84, 8.19 14.19, 5.83 16.92 M6.75 16.82 C3.8 14.68, 3.79 12.14, -0.19 9.48 M6 17.08 C3.19 13.92, 1.51 10.26, -0.24 9.5 M-0.69 9.06 C2.8 5.4, 4.94 3.34, 4.94 0.11 M0.23 9.34 C1.52 6.79, 2.6 4.28, 6.14 0.05" stroke="#e67700" stroke-width="4" fill="none"></path></g><g stroke-linecap="round"><g transform="translate(890.9952422089833 367.8891269491412) rotate(0 -60.49975861447666 0.8104829598559462)"><path d="M0.6 -0.84 C-19.49 -0.26, -100.35 1.95, -120.68 2.46 M-0.55 1.34 C-20.77 1.7, -101.27 1.09, -121.6 0.92" stroke="#000000" stroke-width="4" fill="none"></path></g><g transform="translate(890.9952422089833 367.8891269491412) rotate(0 -60.49975861447666 0.8104829598559462)"><path d="M-94.73 -9.02 C-99.67 -7.21, -108.18 -2.54, -120.29 -0.77 M-93.39 -9.52 C-101.22 -5.78, -109.88 -3.07, -120.63 1.29" stroke="#000000" stroke-width="4" fill="none"></path></g><g transform="translate(890.9952422089833 367.8891269491412) rotate(0 -60.49975861447666 0.8104829598559462)"><path d="M-94.88 11.5 C-99.6 7.42, -108.07 6.21, -120.29 -0.77 M-93.54 11 C-101.13 8.73, -109.75 5.43, -120.63 1.29" stroke="#000000" stroke-width="4" fill="none"></path></g></g><g stroke-linecap="round" transform="translate(1303.776047422708 987.1006929225551) rotate(0 5.468860103839916 8.593923020319892)"><path d="M6.04 -0.05 C6.04 -0.05, 6.04 -0.05, 6.04 -0.05 M6.04 -0.05 C6.04 -0.05, 6.04 -0.05, 6.04 -0.05" stroke="#fab005" stroke-width="2" fill="none"></path><path d="M5.45 0.28 C6.48 1.46, 7.36 4.41, 11.1 9.1 M6.35 -0.2 C6.89 2.34, 8.14 3.57, 10.55 9.01 M11.35 8.26 C9.15 11.67, 7.37 13.88, 5.43 17.78 M10.94 8.74 C9.08 11.77, 7.54 14.88, 6 17.52 M6.2 17.02 C4.45 14.39, 2.1 13.79, -0.76 9.11 M6.08 16.98 C4.17 14.41, 2.77 12.87, 0.18 8.95 M0.97 9.31 C2.92 6.42, 3.76 2.52, 6.71 -0.91 M-0.32 9.38 C1.23 6.65, 2.41 4.55, 6.54 -0.1" stroke="#e67700" stroke-width="4" fill="none"></path></g><g stroke-linecap="round" transform="translate(1308.463641797428 1015.2262591708748) rotate(0 5.468860103839916 8.593923020319892)"><path d="M6.04 -0.05 C6.04 -0.05, 6.04 -0.05, 6.04 -0.05 M6.04 -0.05 C6.04 -0.05, 6.04 -0.05, 6.04 -0.05" stroke="#4c6ef5" stroke-width="2" fill="none"></path><path d="M5.77 -0.77 C7.17 3.2, 8.26 5.24, 10.44 8.54 M6.39 0.34 C7.5 3.1, 8.51 5.01, 10.66 8.91 M10.32 9.24 C8.27 11.37, 7.11 16.11, 5.59 17.29 M11.22 9.07 C10.33 10.56, 9.3 12.18, 5.65 17.6 M6.56 17.4 C3.57 14.86, 2.32 12.66, 0.39 8.71 M6.17 17.52 C4.36 15.22, 3.38 14.12, -0.11 9.5 M0.06 8.92 C1.68 7.42, 3.62 4.21, 6.74 0.39 M0.05 8.94 C1.8 5.31, 4.7 2.24, 6.19 0.35" stroke="#364fc7" stroke-width="4" fill="none"></path></g><g stroke-linecap="round" transform="translate(528.0772408234271 340.9555977718038) rotate(0 109.51338269334781 31.89702087462905)"><path d="M-1.13 1.49 C79.28 -0.07, 160.38 -1.12, 217.78 1.21 M-0.25 0.31 C63.67 -1.04, 125.62 -1.49, 218.77 -0.85 M217.47 -0.23 C220.48 24.61, 217.93 52.36, 218.74 62.19 M218.75 0.27 C218.17 13.51, 218.3 27.23, 218.78 63.95 M219.78 63.31 C139.5 63.32, 57.12 64.14, -1.57 62.59 M219.28 63.29 C167.85 65.67, 114.76 65.44, 0.36 64.09 M-1.01 65.74 C0.09 45.55, 0.95 26.98, 1.5 0.78 M-0.72 64.59 C0.05 45.37, 1.01 24.52, 0.31 -0.16" stroke="#000000" stroke-width="4" fill="none"></path></g><g stroke-linecap="round"><g transform="translate(636.3780561054444 405.6465369678954) rotate(0 0.4940486870206371 -31.471930509714326)"><path d="M0.93 -0.54 C1.24 -10.89, 0.74 -52.21, 0.73 -62.81 M-0.04 1.79 C0.27 -8.87, 0.06 -53.87, 0.17 -64.74" stroke="#000000" stroke-width="4" fill="none"></path></g></g><g transform="translate(578.4694712947452 363.1480966022426) rotate(0 19 12.5)"><text x="0" y="18" font-family="Virgil, Segoe UI Emoji" font-size="20px" fill="#000000" text-anchor="start" style="white-space: pre;" direction="ltr">VPN</text></g><g transform="translate(683.994749121972 361.94437256385186) rotate(0 8.5 12.5)"><text x="0" y="18" font-family="Virgil, Segoe UI Emoji" font-size="20px" fill="#000000" text-anchor="start" style="white-space: pre;" direction="ltr">O</text></g><g stroke-linecap="round"><g transform="translate(635.100765457382 410.05963639441916) rotate(0 -0.8820575720951354 89.77513434950686)"><path d="M0.84 -1.13 C0.27 28.88, -2.03 150.64, -2.6 180.68 M-0.18 0.89 C-0.46 30.5, -0.43 149.01, -0.44 178.86" stroke="#000000" stroke-width="4" fill="none"></path></g></g><g stroke-linecap="round"><g transform="translate(630.2715148433948 589.9671648409658) rotate(0 -69.75388123985638 0.723689410225262)"><path d="M-0.46 -0.88 C-23.7 -0.65, -116.77 0.6, -140.34 1.14 M1.5 1.28 C-21.78 1.67, -117.5 2.47, -141 2.3" stroke="#000000" stroke-width="4" fill="none"></path></g><g transform="translate(630.2715148433948 589.9671648409658) rotate(0 -69.75388123985638 0.723689410225262)"><path d="M-114.3 -7.12 C-120.39 -7.46, -124.71 -3.6, -141.49 1.65 M-113.39 -8.83 C-122.66 -5.4, -129.82 -1.45, -141.71 2.53" stroke="#000000" stroke-width="4" fill="none"></path></g><g transform="translate(630.2715148433948 589.9671648409658) rotate(0 -69.75388123985638 0.723689410225262)"><path d="M-114.25 13.41 C-120.32 8.44, -124.65 7.68, -141.49 1.65 M-113.35 11.69 C-122.64 8.65, -129.81 6.13, -141.71 2.53" stroke="#000000" stroke-width="4" fill="none"></path></g></g><g stroke-linecap="round" transform="translate(340.25949249343785 486.953020434117) rotate(0 71.78229897506982 141.68954655728862)"><path d="M-0.96 -1.59 C38.78 2.32, 72.97 -0.49, 144.45 -1.07 M0.22 0.63 C39.2 -0.16, 78.02 0.5, 143.52 0.26 M142.98 -0.35 C143.07 104.94, 142.97 208.49, 144.83 283.55 M143.02 0.23 C142.1 94.93, 141.95 188.87, 142.92 284.12 M143.98 282.88 C95.58 281.25, 47.36 280.61, -1.94 284.88 M143.19 283.23 C109.12 285.42, 77.28 285.53, 0.96 283.74 M0.65 284.75 C0.7 226.23, -2.05 168.08, 1.38 0.58 M-0.19 283.29 C-1.4 173.55, -0.53 64.1, -0.66 -0.17" stroke="#000000" stroke-width="4" fill="none"></path></g><g stroke-linecap="round"><g transform="translate(373.56390634990464 548.9840268477592) rotate(0 39.4204785638762 -0.021894753340404804)"><path d="M-0.06 -0.74 C13.24 -0.63, 67.29 0.34, 80.4 0.42 M-1.56 1.49 C11.61 1.24, 66.14 -1.43, 79.91 -1.53" stroke="#000000" stroke-width="4" fill="none"></path></g></g><g stroke-linecap="round"><g transform="translate(342.2081255321456 607.9735537942963) rotate(0 72.17316572019789 0.4901698373545287)"><path d="M-0.32 1.19 C11.49 1.41, 47.51 1.22, 71.68 1.04 C95.84 0.86, 132.74 0.26, 144.66 0.11 M1.72 0.77 C13.29 0.7, 46.87 -0.64, 70.67 -0.52 C94.46 -0.4, 132.36 1.2, 144.46 1.51" stroke="#000000" stroke-width="4" fill="none"></path></g></g><g stroke-linecap="round"><g transform="translate(338.88378629579745 662.968567633452) rotate(0 74.02554411143538 -0.2577088282907596)"><path d="M-0.86 1.14 C23.66 1.19, 122.13 0.24, 146.75 0.15 M0.88 0.69 C25.81 0.41, 124.2 -1.35, 148.92 -1.65" stroke="#000000" stroke-width="4" fill="none"></path></g></g><g stroke-linecap="round"><g transform="translate(374.61588323524427 710.1792344837081) rotate(359.01108488583253 39.82115238573573 0.7932124917937244)"><path d="M-0.1 0.3 C13.59 0.39, 67.82 0.54, 81.25 0.72 M-1.61 -0.59 C11.99 -0.32, 66.13 2.18, 80.2 2.17" stroke="#000000" stroke-width="4" fill="none"></path></g></g><g transform="translate(372.9529446281191 783.6602204081726) rotate(0 40.69678077891868 35.08343170596436)"><text x="0" y="25.08343170596438" font-family="Virgil, Segoe UI Emoji" font-size="28.066745364771485px" fill="#000000" text-anchor="start" style="white-space: pre;" direction="ltr">Page</text><text x="0" y="60.16686341192876" font-family="Virgil, Segoe UI Emoji" font-size="28.066745364771485px" fill="#000000" text-anchor="start" style="white-space: pre;" direction="ltr">Table</text></g><g stroke-linecap="round" transform="translate(531.0072533532016 356.96436072177823) rotate(0 13.5 17.5)"><path d="M13.88 0.14 C13.88 0.14, 13.88 0.14, 13.88 0.14 M13.88 0.14 C13.88 0.14, 13.88 0.14, 13.88 0.14 M12.08 26.61 C15.23 24.85, 15.89 23.38, 21.66 13.55 M10.72 28.63 C15.23 23.24, 18.19 19.32, 23.66 13.35" stroke="#fab005" stroke-width="2" fill="none"></path><path d="M13.87 -0.88 C19.37 2.92, 22 11.4, 25.88 16.97 M14.69 -0.85 C18.93 5.86, 23 13.26, 27.19 17.45 M28.04 19.57 C22.83 22.47, 17.35 30.16, 12.39 34.49 M26.72 17.45 C23.06 22.87, 20.15 25.39, 14.78 34.47 M15.97 34.71 C10.17 28.78, 4.84 23.75, -0.63 16.18 M13.48 34.79 C9.1 29.77, 4.96 23.64, -0.6 18.17 M1.8 17.23 C5.07 14.38, 6.45 10.39, 13.28 -0.51 M0.9 18.7 C3.89 13.37, 8.82 7.56, 13.75 -0.44" stroke="#5c940d" stroke-width="4" fill="none"></path></g><g stroke-linecap="round" transform="translate(10.000000000000057 983.9756300060747) rotate(0 5.468860103839916 10.156454478559908)"><path d="M6.04 -0.05 C6.04 -0.05, 6.04 -0.05, 6.04 -0.05 M6.04 -0.05 C6.04 -0.05, 6.04 -0.05, 6.04 -0.05" stroke="#fab005" stroke-width="2" fill="none"></path><path d="M5.12 -0.97 C8.08 2.02, 8.73 4.86, 10 10.03 M5.91 -0.01 C8.26 3.98, 9.01 7.23, 11.13 10.87 M10.95 10.74 C10.04 13.5, 7.22 17.64, 5.66 21.09 M10.61 11.12 C9.34 13.88, 8.02 16.77, 6.11 20.3 M6.17 19.28 C3.71 18.16, 1.03 13.62, 0.74 11 M5.63 20.7 C4.77 17.7, 2.8 14.87, 0.06 10.63 M-0.46 10.75 C1.51 6.81, 4.96 2.9, 6.16 -0.21 M0.05 11.16 C1.91 7.94, 3.39 5.01, 6.41 -0.36" stroke="#5c940d" stroke-width="4" fill="none"></path></g><g stroke-linecap="round" transform="translate(664.7006810025538 365.21317254304097) rotate(0 5.468860103839916 10.156454478559908)"><path d="M6.04 -0.05 C6.04 -0.05, 6.04 -0.05, 6.04 -0.05 M6.04 -0.05 C6.04 -0.05, 6.04 -0.05, 6.04 -0.05" stroke="#fab005" stroke-width="2" fill="none"></path><path d="M6.18 0.51 C6.25 1.19, 9.23 4.29, 11.85 9.92 M6.49 0.15 C6.75 2.79, 9.06 6.39, 10.56 10.72 M11.96 10.98 C8.48 14.17, 6.91 18.44, 6.82 20.01 M11.18 10.56 C8.59 14.01, 7.18 17.77, 6.35 20.67 M5.88 20.41 C4.88 15.87, 0.53 13.81, 0.01 10.89 M6.08 20.4 C4.11 18.13, 2.96 15.85, -0.07 10.65 M-0.28 9.84 C1.61 9.14, 2.9 4.23, 5.07 -0.53 M0.37 11.4 C1.57 7.98, 2.42 6.37, 6.45 -0.41" stroke="#d9480f" stroke-width="4" fill="none"></path></g><g stroke-linecap="round" transform="translate(10 1015.2262591708743) rotate(0 5.468860103839916 10.156454478559908)"><path d="M6.04 -0.05 C6.04 -0.05, 6.04 -0.05, 6.04 -0.05 M6.04 -0.05 C6.04 -0.05, 6.04 -0.05, 6.04 -0.05" stroke="#fab005" stroke-width="2" fill="none"></path><path d="M5.35 1.11 C6.66 3.98, 9.55 6.94, 11.64 10.64 M6.3 0.53 C6.73 2.6, 8.12 4.29, 11.52 10.73 M11.19 11.05 C9.23 13.42, 6.39 17.69, 6.71 19.29 M10.69 11.31 C9.2 13.19, 8.03 15.71, 6.12 20.71 M5.43 20.74 C3.4 16.81, 0.81 12.98, -0.5 10.71 M6.27 20.7 C4.02 17.54, 2.97 15.58, -0.45 11.53 M-0.68 10.75 C2.45 6.54, 5 1.75, 5.31 -0.68 M-0.52 10.58 C1.92 7.74, 3.12 4.54, 6.29 0.56" stroke="#d9480f" stroke-width="4" fill="none"></path></g><g stroke-linecap="round"><g transform="translate(334.48068372564023 612.7068089541997) rotate(0 -37.57950238680579 0.33161699075694173)"><path d="M-0.15 1.1 C-12.55 1.09, -61.78 1.36, -74.19 1.1 M-1.69 0.64 C-14.24 0.81, -62.7 -0.53, -75.01 -0.55" stroke="#000000" stroke-width="4" fill="none"></path></g></g><g stroke-linecap="round"><g transform="translate(258.4497207947935 613.0486245430402) rotate(0 1.3631471701591238 129.60020726158555)"><path d="M-0.77 0.41 C-0.52 43.48, 0.79 215.15, 1.41 258.23 M1.02 -0.43 C1.63 42.85, 3.27 216.76, 3.5 259.63" stroke="#000000" stroke-width="4" fill="none"></path></g><g transform="translate(258.4497207947935 613.0486245430402) rotate(0 1.3631471701591238 129.60020726158555)"><path d="M-6.3 229.54 C-4.42 240.4, -0.23 246.79, 2.48 258.02 M-6.63 231.35 C-4.79 240.76, -0.91 248.77, 2.91 259.67" stroke="#000000" stroke-width="4" fill="none"></path></g><g transform="translate(258.4497207947935 613.0486245430402) rotate(0 1.3631471701591238 129.60020726158555)"><path d="M14.22 229.38 C10.11 240.15, 8.3 246.59, 2.48 258.02 M13.89 231.19 C9.69 240.57, 7.54 248.64, 2.91 259.67" stroke="#000000" stroke-width="4" fill="none"></path></g></g><g stroke-linecap="round" transform="translate(203.77168744603136 883.0632023438136) rotate(0 70.74996334919376 33.73054686411149)"><path d="M1.02 -1.63 C53.87 1.17, 106.5 0.44, 143.42 -0.9 M0.6 0.58 C44.28 -0.16, 86.64 0.95, 140.6 0.56 M139.69 -1.45 C143.57 19.26, 140.9 39.37, 140.5 68.6 M141.09 -0.93 C140.87 20.14, 141.21 41.87, 141.58 67.2 M140.68 67.2 C91.58 67.39, 39.97 67.95, 0.51 66.79 M141.46 68.29 C100.98 68.84, 61.58 68.84, 0.75 67.45 M0.22 66.92 C-1.79 46.76, -1.08 24.76, 0.19 1.69 M-0.8 66.94 C-1.07 42.61, 0.17 20.32, -0.13 -0.31" stroke="#000000" stroke-width="4" fill="none"></path></g><g stroke-linecap="round"><g transform="translate(360.8506894730599 918.0169071059537) rotate(0 272.3510600436929 -71.09807434680016)"><path d="M-0.22 0.82 C90.44 -22.91, 453.36 -119.19, 544.22 -143.02 M-1.8 0.21 C89.22 -23.26, 455.52 -117.4, 546.5 -141.45" stroke="#000000" stroke-width="4" fill="none"></path></g><g transform="translate(360.8506894730599 918.0169071059537) rotate(0 272.3510600436929 -71.09807434680016)"><path d="M523.17 -125.79 C529.89 -129.99, 539.19 -135.13, 547.89 -142.48 M521.02 -124.03 C529.92 -130.94, 539.28 -135.86, 547.47 -141.26" stroke="#000000" stroke-width="4" fill="none"></path></g><g transform="translate(360.8506894730599 918.0169071059537) rotate(0 272.3510600436929 -71.09807434680016)"><path d="M518.01 -145.65 C526.28 -143.5, 537.22 -142.29, 547.89 -142.48 M515.85 -143.89 C526.41 -143.74, 537.61 -141.61, 547.47 -141.26" stroke="#000000" stroke-width="4" fill="none"></path></g></g><g stroke-linecap="round"><g transform="translate(273.71334906345237 883.1572692940916) rotate(0 -0.45784804197196394 30.72932125977536)"><path d="M0.56 0.83 C0.7 11.16, -0.06 51.54, -0.31 61.24 M-0.61 0.21 C-0.55 10.3, -1.78 49.73, -1.43 59.66" stroke="#000000" stroke-width="4" fill="none"></path></g></g><g transform="translate(215.60726500604244 909.4645153264504) rotate(0 20 12.5)"><text x="0" y="18" font-family="Virgil, Segoe UI Emoji" font-size="20px" fill="#000000" text-anchor="start" style="white-space: pre;" direction="ltr">PFN</text></g><g transform="translate(236.02165079522513 904.2937492079251) rotate(0 38.5 12.5)"><text x="38.5" y="18" font-family="Virgil, Segoe UI Emoji" font-size="20px" fill="#000000" text-anchor="middle" style="white-space: pre;" direction="ltr">      O</text></g><g transform="translate(2023.7006417440948 977.2011539718172) rotate(0 81 12.5)"><text x="0" y="18" font-family="Virgil, Segoe UI Emoji" font-size="20px" fill="#000000" text-anchor="start" style="white-space: pre;" direction="ltr">F: Frame Number</text></g><g stroke-linecap="round"><g transform="translate(2022.7216417669224 299.25768985558136) rotate(0 -31.625247792353775 25.51991593968941)"><path d="M0.67 -0.85 C-11.06 3.67, -70.33 17.83, -69.28 26.48 C-68.23 35.14, -5.64 46.65, 6.97 51.09 M-0.44 1.32 C-12.42 6.06, -71.37 19.42, -70.21 27.84 C-69.04 36.27, -6.25 48, 6.57 51.89" stroke="#000000" stroke-width="4" fill="none"></path></g></g><g transform="translate(1922.7763221764822 312.4359847929896) rotate(0 7 12.5)"><text x="0" y="18" font-family="Virgil, Segoe UI Emoji" font-size="20px" fill="#000000" text-anchor="start" style="white-space: pre;" direction="ltr">S</text></g><g stroke-linecap="round"><g transform="translate(2022.2215063758586 399.39187322868634) rotate(0 -31.439608367193955 25.681362365259588)"><path d="M-1.15 -0.79 C-12.7 3.8, -69.52 18.37, -68.35 27.04 C-67.17 35.72, -6.54 47.25, 5.91 51.27 M0.44 1.41 C-11.26 5.65, -69.53 16.59, -68.78 25.04 C-68.03 33.5, -7.61 47.7, 4.95 52.15" stroke="#000000" stroke-width="4" fill="none"></path></g></g><g transform="translate(1937.1424637923042 416.439507161244) rotate(0 6.5 12.5)"><text x="0" y="18" font-family="Virgil, Segoe UI Emoji" font-size="20px" fill="#000000" text-anchor="start" style="white-space: pre;" direction="ltr">s</text></g><g stroke-linecap="round"><g transform="translate(340.59685154741965 491.3263936234725) rotate(0 -42.41841597515893 29.54423680707515)"><path d="M-0.94 -0.98 C-15.22 4.95, -83.81 26.04, -85.56 36.21 C-87.31 46.38, -23.84 56.07, -11.44 60.06 M0.76 1.13 C-13.13 7.12, -81.11 27.82, -83.23 37.31 C-85.34 46.79, -24.03 54.61, -11.92 58.06" stroke="#000000" stroke-width="4" fill="none"></path></g></g><g transform="translate(182.24084250067165 501.5725050017714) rotate(0 29.5 25)"><text x="0" y="18" font-family="Virgil, Segoe UI Emoji" font-size="20px" fill="#000000" text-anchor="start" style="white-space: pre;" direction="ltr">Page</text><text x="0" y="43" font-family="Virgil, Segoe UI Emoji" font-size="20px" fill="#000000" text-anchor="start" style="white-space: pre;" direction="ltr">Frame</text></g></svg>