<svg version="1.1" xmlns="http://www.w3.org/2000/svg" viewBox="0 0 1297.1191076278687 554" width="3891.3573228836062" height="1662">
  <!-- svg-source:excalidraw -->
  
  <defs>
    <style>
      @font-face {
        font-family: "Virgil";
        src: url("https://excalidraw.com/Virgil.woff2");
      }
      @font-face {
        font-family: "Cascadia";
        src: url("https://excalidraw.com/Cascadia.woff2");
      }
    </style>
  </defs>
  <g stroke-opacity="0.7" fill-opacity="0.7" stroke-linecap="round" transform="translate(13.61910762786863 267.5) rotate(0 102.25 47.5)"><path d="M0 0 C0 0, 0 0, 0 0 M0 0 C0 0, 0 0, 0 0 M0.92 10.9 C4.78 8.09, 9.45 2.22, 10.05 -0.63 M0.61 11.42 C2.43 9.64, 4.35 5.84, 10.75 0.08 M-1 23.38 C5.74 18.33, 12.06 10.28, 19.65 -0.64 M-0.13 23.14 C9.29 15.64, 15.57 5.58, 20.34 -0.5 M1.07 36.46 C8.07 28.51, 11.62 19.05, 31.19 -1.82 M-0.85 36.11 C6.91 27.61, 15.15 19.75, 31.48 0.65 M0.74 48.58 C10.18 37.41, 21.66 24.44, 41.08 -1.49 M0.48 48.17 C13.24 32.03, 28.6 16.39, 43.08 -0.72 M0.4 60.82 C15.88 41.75, 28.89 25.57, 54.78 1.21 M0.82 61.03 C20.87 36.54, 42.58 13.6, 54.03 -0.44 M0.02 71.54 C21.96 48.9, 45.01 23.85, 64.72 -0.79 M-0.18 72.1 C24.04 45.18, 47.85 16.94, 64.29 -0.87 M-1.5 83.17 C29.7 50.57, 56.44 18.83, 76.23 -0.49 M0.17 84.29 C29.2 51.46, 57.67 17.76, 73.8 0.11 M0.37 95.45 C31.66 62.86, 58.58 29.95, 85.61 1.16 M1.25 96.2 C18.09 76.83, 36.08 57.69, 85.57 0.07 M13.57 94.36 C38.02 63.81, 67.01 34.17, 94.07 1.28 M11.97 96.09 C37.72 67.51, 63.3 37.48, 96.62 -0.93 M24.01 97.86 C50 62.45, 82.58 29.17, 105.79 1.05 M22.29 96.59 C43.23 73.02, 64.56 49.21, 107.02 0.62 M34.34 96.63 C50.47 74.29, 69.32 52.65, 117.21 0.47 M33 96.46 C60.48 67.24, 85.42 34.83, 116.2 -0.54 M44.17 95.39 C66.46 71.48, 88.08 47.86, 125.67 1.35 M42.96 96.94 C67.37 70.32, 90.7 44.28, 126.6 -0.45 M56.02 94.98 C83.74 57.18, 118.68 21.95, 139.5 1.79 M54.03 96.74 C87.21 56.58, 118.76 18.71, 136.7 -0.44 M65.38 94.24 C84.91 75.15, 103.27 52.83, 146.6 -0.76 M64.11 97.04 C84.31 75.57, 101.34 53.55, 148.7 0.89 M74.66 96.12 C90.1 77.03, 110.42 55.31, 159.82 1.19 M76.15 96.47 C94.34 73.84, 113.48 51.44, 158.81 -0.61 M87.2 97.6 C105.44 72.76, 127.34 48.16, 170.96 -0.81 M87.1 96.14 C116.52 61.19, 146.66 26.3, 170.28 0.41 M97.29 95.75 C123.75 63.56, 150.17 35.09, 180.74 -1.13 M96.96 96.65 C121.08 68.79, 145.26 40.67, 180.39 -0.27 M108.16 97.69 C125.4 73.62, 144.52 54.07, 188.81 1.91 M107.77 95.04 C134.34 63.34, 162.67 33.65, 191.45 0.63 M117.98 94.59 C138.57 74.34, 155.41 53.68, 199.79 0.04 M118.57 95.82 C146.62 62.75, 175.54 27.94, 201.79 0.84 M129.83 95.69 C145.72 77.16, 166.64 53.82, 209.92 4.86 M128.47 95.99 C151.26 70.07, 173.47 43, 209.51 3.35 M137.75 94.32 C155.96 79.85, 170.91 62.46, 207.74 14.75 M139.59 96 C167 63.25, 193.76 32.79, 208.08 16.36 M148.73 97.83 C163.98 78.52, 178.98 63.84, 207.89 27.35 M150.07 96.78 C171.21 69.78, 194.03 45.04, 209.14 28.7 M160.68 97.66 C175.54 78.55, 191.24 57.46, 210.7 38.65 M161.1 96.71 C174.89 80.21, 190.94 63.15, 209.17 40 M172.43 95.29 C181.3 85.67, 189.29 72.89, 206.83 53.47 M171.9 96.67 C182.08 84.55, 192.37 73.93, 209 52.08 M181.79 96.3 C190.23 84.52, 202.3 73.23, 209.79 64.4 M182.71 94.98 C190.29 84.52, 199.25 75.12, 209.48 65 M190.81 97.05 C197.55 89.38, 204.75 84.28, 210.1 78.4 M191.17 97.19 C198.15 88.16, 205.7 81.48, 208.5 76.51 M202.43 96.07 C204.77 95.02, 204.86 92.55, 208.4 88.29 M202.13 96.25 C204.37 94.42, 206.23 92.05, 208.8 88.49" stroke="#868e96" stroke-width="1" fill="none"></path><path d="M-0.84 0.14 C73.29 1.36, 147.14 1.78, 205.96 0.86 M-0.85 0.08 C61.83 1.61, 125.8 2, 205.34 0.58 M203.76 0.57 C203.81 26.11, 206.98 54.79, 203.46 96.57 M205.33 -0.93 C203.12 20.13, 204.09 42.24, 204.43 95.41 M206.17 93.43 C137.99 93.51, 70.28 92.54, -0.47 94.81 M205.33 94.99 C146.17 94.14, 88.85 94.71, -0.34 94.51 M-1.7 94.13 C-0.73 71.46, -0.77 53.38, 1.01 -1.92 M-0.23 95.01 C-1.23 73.69, -0.88 51.16, -0.29 0.12" stroke="#000000" stroke-width="2" fill="none"></path></g><g stroke-opacity="0.7" fill-opacity="0.7" stroke-linecap="round" transform="translate(11.11910762786863 414.5) rotate(0 103 28)"><path d="M0 0 C0 0, 0 0, 0 0 M0 0 C0 0, 0 0, 0 0 M-0.8 12.28 C3.28 8.46, 6.54 5.19, 9.61 -0.6 M0.15 11.4 C2.74 9.46, 6.65 4.94, 10.31 -0.79 M1.07 22.23 C7.54 12.96, 18 6.46, 22.59 -0.49 M-0.57 23.73 C7.44 14.41, 16.32 5.08, 20.67 -0.83 M0 36.05 C9.79 26.35, 18.38 18.45, 32.76 -0.44 M-0.1 36.16 C8.6 25.88, 18.95 14.51, 32.5 -0.85 M-0.32 50.03 C8.73 37.36, 20.34 27.99, 42.91 -0.27 M0.22 49.74 C14.88 34.02, 27.65 17.5, 43.33 -0.07 M3.61 59.71 C16.59 41.78, 30.45 25.24, 53.03 -1.63 M2.73 58.41 C17.57 40.49, 33.12 22.65, 52.83 -1.07 M11.5 58.92 C26.98 42.36, 42.17 23.18, 62.01 -2.08 M13.09 58.82 C29.46 41.01, 46.33 22.69, 63.68 -0.96 M24.91 56.65 C41.87 38.68, 60.01 19.01, 73.71 -1.12 M24.84 58.15 C43.98 34.45, 62.09 11.95, 74.59 -0.37 M34.18 58.89 C46.65 45.72, 57.09 30.61, 86.92 -2.2 M35.47 57.04 C46.21 45.84, 55.4 33.49, 85.32 -0.48 M44.59 59.71 C58.36 41.94, 74.68 22.3, 97.36 1.3 M45.47 57.55 C56.35 45.02, 65.11 32.73, 95.63 0.02 M54.38 59.21 C70.73 41.33, 81.51 28.45, 107.69 0.06 M55.35 58.24 C68.52 43.72, 81.08 28.16, 106.35 -0.11 M64.04 58.34 C83.32 35.15, 104.64 11.63, 116.86 -0.42 M66.04 57.87 C84.52 37.1, 101.21 16.13, 115.65 1.13 M76.99 57.83 C90.35 41.92, 108.53 24.18, 128.71 -0.84 M76.43 59.43 C87.81 47.34, 98.3 35.57, 126.72 0.93 M85.61 56.75 C105.82 34.33, 128.06 11.93, 138.07 -1.57 M86.48 57.63 C106.62 34.08, 126.67 10.81, 136.8 1.22 M95.88 59.46 C116.42 36.84, 133.55 18.96, 147.35 0.3 M96.86 58.9 C108.21 45.57, 118.36 34.45, 148.83 0.65 M108.7 58.39 C120.22 42.02, 137.07 28.07, 159.89 1.79 M109.24 59.12 C118.73 46.03, 131.34 31.77, 159.79 0.33 M117.94 60.03 C138.55 36.51, 157.18 16.11, 169.98 -0.06 M119.34 58.66 C135.04 39.16, 151.25 20.31, 169.65 0.84 M128.36 58.95 C142.11 41.19, 157.64 26.88, 180.85 1.87 M129.91 57.34 C145.86 41.03, 159.87 24.05, 180.46 -0.78 M141.7 59.77 C154.69 41.1, 164.82 29.44, 190.66 -1.23 M139.73 57.48 C160.38 35.42, 181.07 11.73, 191.26 0.01 M150.63 59.16 C165.21 41.93, 176.17 26.61, 202.52 -0.12 M150.6 58.84 C161.67 45.34, 172.57 32.27, 201.16 0.18 M160.73 59.86 C174.9 40.27, 191.88 25, 207.82 1.52 M162.37 57.65 C179.41 36.9, 199.57 15.02, 209.65 3.21 M172.55 56.7 C188.17 39.59, 203.43 22.26, 208.3 17.11 M171.91 57.62 C184.44 44.45, 197.96 29.65, 209.63 16.06 M183.56 58.52 C191.68 50.22, 197.24 43.04, 209.75 29.01 M182.12 58.93 C188.51 50.56, 195.44 41.83, 210.17 28.07 M194.18 58.28 C197.41 52.24, 202.42 49.43, 211.01 38.73 M192.93 57.22 C199.18 51.37, 204.04 44.26, 210.47 40.1 M204.67 58.41 C205.37 56.32, 208.53 54.14, 209.2 52.23 M204.1 58.26 C205.09 56.73, 206.5 55.22, 209.57 51.7" stroke="#868e96" stroke-width="1" fill="none"></path><path d="M1.7 1.67 C44.55 -1.22, 88.24 -2.77, 205.34 0.5 M-0.58 -0.46 C47.46 -2.27, 92.99 -1.51, 206.74 -0.83 M206.63 -0.14 C206.36 12.75, 206.21 23.25, 207.87 54.25 M205.25 -0.27 C205.77 16.74, 205.51 33.17, 206.93 55.99 M207.69 55.32 C148.24 55.87, 91.28 56.65, -1.51 55.23 M206.68 56.45 C157.25 54.1, 110.75 54.75, -0.2 56.01 M-0.36 55.43 C-0.05 42.48, 0.93 31.62, 0.91 -0.78 M-0.92 56.19 C-0.93 39.84, 0.27 25.15, -0.17 0.72" stroke="#000000" stroke-width="2" fill="none"></path></g><g stroke-linecap="round" transform="translate(12.11910762786863 160) rotate(0 104 182)"><path d="M1.7 1.59 C57.98 -1.73, 118.73 -1.05, 209.25 -0.35 M0.04 0.54 C58.21 -0.57, 116.94 -0.8, 207.39 0.77 M207.55 -0.79 C207.92 116.9, 207.02 232.99, 206.96 363.66 M208.49 0 C206.73 89.24, 206.76 179.34, 208.11 364.06 M208.15 363.25 C127.51 366.76, 47.09 364.74, 0.51 364.39 M208.66 363.51 C161.61 363.68, 114.11 364.02, -0.57 364.3 M-0.96 364.22 C2.77 233.69, 1.37 102.48, 0.33 -1.07 M-0.26 363.65 C-0.93 235.27, -1.01 106.05, 0.47 -0.41" stroke="#000000" stroke-width="2" fill="none"></path></g><g stroke-linecap="round"><g transform="translate(12.61910762786863 218.5) rotate(0 103.72413808026351 -0.8928775429725988)"><path d="M0.34 0.34 C34.72 -0.09, 171.51 -1.9, 206.13 -2.13 M-0.94 -0.52 C33.82 -0.8, 173.58 -0.27, 208.39 -0.66" stroke="#000000" stroke-width="2" fill="none"></path></g></g><g transform="translate(48.61910762786863 179.5) rotate(0 68 13)"><text x="68" y="18" font-family="Virgil, Segoe UI Emoji" font-size="20px" fill="#000000" text-anchor="middle" style="white-space: pre;" direction="ltr">Program Code</text></g><g stroke-linecap="round"><g transform="translate(13.61910762786863 266.5) rotate(0 101.88667033910751 -0.2360609412193071)"><path d="M-0.71 0.66 C33.27 0.31, 170.38 -0.85, 204.49 -1.13 M1.11 -0.04 C34.92 -0.27, 170.13 0.28, 203.8 0.34" stroke="#000000" stroke-width="2" fill="none"></path></g></g><g transform="translate(91.11910762786863 231.5) rotate(0 23.5 13)"><text x="23.5" y="18" font-family="Virgil, Segoe UI Emoji" font-size="20px" fill="#000000" text-anchor="middle" style="white-space: pre;" direction="ltr">Heap</text></g><g stroke-linecap="round"><g transform="translate(11.61910762786863 363.5) rotate(0 100.71600052118302 0.03416939042602962)"><path d="M-1.16 -0.64 C32.71 -0.4, 168.84 0.22, 202.59 0.37 M0.44 1.63 C34.24 1.6, 168.66 -1.57, 201.95 -1.56" stroke="#000000" stroke-width="2" fill="none"></path></g></g><g stroke-linecap="round"><g transform="translate(10.903107106685638 414.46583060957414) rotate(0 102.65831314325332 -1.3255109119834287)"><path d="M-0.9 -0.28 C33.64 -0.33, 171.58 -0.65, 206.22 -0.85 M0.82 -1.48 C35.32 -1.78, 171.09 -2.02, 205.39 -2.37" stroke="#000000" stroke-width="2" fill="none"></path></g></g><g stroke-linecap="round"><g transform="translate(10.960794484615235 472.82551091198366) rotate(0 103.54828551449813 -1.0978360510291623)"><path d="M0.49 0.46 C34.76 0.42, 171.16 -0.26, 205.4 -0.69 M-0.71 -0.34 C33.98 -0.73, 173.49 -2.47, 207.8 -2.66" stroke="#000000" stroke-width="2" fill="none"></path></g></g><g transform="translate(70.11910762786863 376.5) rotate(0 44.5 13)"><text x="44.5" y="18" font-family="Virgil, Segoe UI Emoji" font-size="20px" fill="#000000" text-anchor="middle" style="white-space: pre;" direction="ltr">Stack (1)</text></g><g transform="translate(67.61910762786863 485.5) rotate(0 49 13)"><text x="49" y="18" font-family="Virgil, Segoe UI Emoji" font-size="20px" fill="#000000" text-anchor="middle" style="white-space: pre;" direction="ltr">Stack (2)</text></g><g transform="translate(87.11910762786863 302.5) rotate(0 28.5 13)"><text x="28.5" y="18" font-family="Virgil, Segoe UI Emoji" font-size="20px" fill="#000000" text-anchor="middle" style="white-space: pre;" direction="ltr">(free)</text></g><g transform="translate(87.11910762786863 431.5) rotate(0 28.5 13)"><text x="28.5" y="18" font-family="Virgil, Segoe UI Emoji" font-size="20px" fill="#000000" text-anchor="middle" style="white-space: pre;" direction="ltr">(free)</text></g><g stroke-linecap="round" transform="translate(286.61910762786863 56.5) rotate(0 64.5 64.5)"><path d="M32.25 0 M32.25 0 C49.51 1.26, 67.6 2.04, 96.75 0 M32.25 0 C54.78 0.86, 77.41 -0.02, 96.75 0 M96.75 0 C117.56 1.12, 130.98 10.81, 129 32.25 M96.75 0 C116.97 2.03, 126.76 11.24, 129 32.25 M129 32.25 C130.1 46.32, 130.13 60.81, 129 96.75 M129 32.25 C128.73 45.34, 129.25 59.57, 129 96.75 M129 96.75 C127.84 116.37, 119.21 128.57, 96.75 129 M129 96.75 C129.09 118.74, 118.13 126.93, 96.75 129 M96.75 129 C73.68 129.65, 49.34 128.72, 32.25 129 M96.75 129 C76.4 129.41, 57.27 129.89, 32.25 129 M32.25 129 C11.28 129.82, 1.28 118.32, 0 96.75 M32.25 129 C11.13 131.09, -1.03 119.26, 0 96.75 M0 96.75 C1.22 85.35, -1.53 71.19, 0 32.25 M0 96.75 C-0.93 76.66, -0.25 55.24, 0 32.25 M0 32.25 C-1.8 12.31, 9.67 -1.27, 32.25 0 M0 32.25 C-0.19 12.96, 8.5 1.44, 32.25 0" stroke="#000000" stroke-width="2" fill="none"></path></g><g transform="translate(330.11910762786863 108) rotate(0 21 13)"><text x="21" y="18" font-family="Virgil, Segoe UI Emoji" font-size="20px" fill="#000000" text-anchor="middle" style="white-space: pre;" direction="ltr">CPU</text></g><g stroke-linecap="round" transform="translate(453.61910762786863 69.5) rotate(0 43 22.5)"><path d="M-0.11 1.48 C28.38 0.77, 58.51 -1.83, 86.11 0.84 M0.65 -0.25 C25.16 -0.33, 50.25 -0.82, 85.99 -0.03 M84.66 0.13 C85.28 13.11, 87.35 27.59, 85.59 45.36 M86.62 0.96 C84.97 16.74, 86.16 35.33, 85.27 45.53 M87.75 45.83 C57.83 45.44, 31.64 43.93, -0.4 45.13 M86.54 45.06 C61.84 45.29, 36.15 45.53, 0.9 44.15 M-0.04 43.91 C1.09 28.68, 0.91 15.55, -0.52 -0.06 M0.13 45.01 C-0.23 28.1, -0.14 8.74, -0.22 -0.94" stroke="#000000" stroke-width="2" fill="none"></path></g><g stroke-linecap="round" transform="translate(632.6191076278686 69) rotate(0 43 22.5)"><path d="M0.28 0.54 C22.64 1.18, 46.66 -1.49, 84.83 0.37 M0.3 -0.34 C29.14 -1.05, 59.28 0.14, 85.7 0.77 M84.4 0.05 C84.65 14.99, 86.56 29.36, 86.88 46.77 M85.73 -0.76 C85.7 15.32, 86.74 32.22, 85.27 44.23 M87.42 45.06 C60.78 42.73, 39.03 43.9, -1.21 45.79 M85.43 44.2 C63.72 44.81, 41.71 45.29, 0.9 45.48 M-0.54 43.81 C0.14 34.03, 0.9 20.76, -0.9 -1.75 M0.99 45.03 C-0.16 30.46, -0.04 17.63, 0.45 -0.77" stroke="#000000" stroke-width="2" fill="none"></path></g><g stroke-linecap="round" transform="translate(549.6191076278686 131) rotate(0 37 22.5)"><path d="M0 0 C0 0, 0 0, 0 0 M0 0 C0 0, 0 0, 0 0 M0.93 10.58 C3.38 8.91, 8.56 2.22, 11.88 -1.46 M-0.44 11.4 C3.73 7.79, 8.37 3.07, 10.5 -0.32 M0.99 23.32 C7.74 14.95, 13.68 6.08, 23.15 -0.12 M-0.14 24.3 C4.35 18.79, 8.69 14, 20.57 0.75 M-0.08 35.98 C10.76 25.5, 19.16 14.65, 29.91 0.72 M0.43 37.58 C12.71 23.21, 23.67 8.77, 30.89 -0.53 M0.9 44.91 C12.62 35.32, 24.61 22.16, 40.73 1.61 M2.67 46.71 C13.03 33.53, 24.65 19.71, 42.93 -0.55 M11.57 46.73 C27.92 28.53, 45.42 10.02, 51.91 0.41 M13.23 47.34 C21.96 34.83, 31.45 24.04, 53.64 0.39 M21.21 47.6 C34.72 34.47, 47.78 20.19, 61.82 -2.1 M23.77 45.75 C39.09 27.76, 54.48 10.82, 64.44 -0.94 M33.68 46.8 C41.99 37.35, 50.32 25.13, 72.89 -0.18 M32.98 47.43 C48.01 30.63, 61.75 12.73, 74.23 0.22 M44.93 44.56 C53.49 33.14, 62.58 25.17, 74.46 11.64 M44.99 45.92 C54.75 34.54, 67.01 20.81, 73.21 12.51 M56.94 48.04 C58.79 40.56, 64.69 33.23, 74.9 25.39 M54.43 45.76 C62.26 37.19, 70.22 30.03, 74.03 24.2 M64.42 45.73 C66.79 43.51, 69.43 42.22, 72.86 37.75 M65.46 45.87 C69.02 42.59, 71.84 40.42, 73.62 36.81" stroke="#868e96" stroke-width="1" fill="none"></path><path d="M1.97 0.06 C23.67 -0.78, 47.03 1.69, 74.89 -1.54 M0.77 -0.7 C23.49 -0.52, 45.14 -0.55, 74.65 0.51 M72.05 -0.63 C74.04 14.66, 74.61 29.02, 73.65 46.33 M74.82 -0.09 C75.19 12.72, 75.21 27.44, 73.89 45.02 M74.38 46.18 C46.96 44.98, 15.41 42.99, -0.07 43.85 M74.34 44.44 C49.11 45.91, 24.18 45.48, 0.95 45.14 M0.36 46.28 C1.42 31.74, 2.1 18.75, -0.33 1.24 M0.25 44.14 C0.4 34.26, -0.46 23.1, 0.98 -0.6" stroke="#000000" stroke-width="2" fill="none"></path></g><g stroke-linecap="round" transform="translate(736.6191076278686 132) rotate(0 52 22.5)"><path d="M0 0 C0 0, 0 0, 0 0 M0 0 C0 0, 0 0, 0 0 M1.08 13.13 C3.3 7.55, 6.94 5.57, 9.3 0.94 M0.22 11.91 C3.56 7.8, 7.83 3.47, 10.34 0.37 M0.1 26.04 C4.65 16.71, 11.53 10.54, 22.43 -0.62 M-0.53 24.02 C7.49 15.48, 16.42 5.91, 22.02 -0.47 M1.4 37.68 C7.46 27.36, 10.85 23.45, 30.01 0.95 M-0.81 36.42 C12.41 24.02, 22.89 8.87, 32.69 0.52 M2.58 46.79 C12.07 31.17, 26.03 19.87, 42.24 -1.28 M2.26 45.8 C9.65 36.05, 20.15 26.09, 42.16 0.13 M10.58 44.89 C27.81 32.02, 38.71 17.62, 54.6 -0.46 M13.22 47.31 C27.31 29.15, 42.24 12.46, 52.34 -0.45 M22.85 46.15 C37.03 29.15, 55.84 11.47, 65.51 -1.65 M22.19 47.2 C33.79 35.18, 42.86 22.85, 64.15 -0.58 M32.3 47.02 C42.14 35.05, 52.57 28, 74.3 0.14 M32.85 47.36 C46.11 32.56, 56.73 21, 74.57 -1.15 M44.79 45.97 C59.87 27.96, 73.08 11.3, 83.28 -2.02 M44.92 46.15 C56.42 31.26, 70.2 17.07, 85.59 0.42 M53.09 45.58 C67.66 33.44, 75.59 22.74, 95.65 -1.03 M55.14 47.4 C69.68 30.67, 83.39 12.76, 95.24 -0.82 M66.94 46.45 C75.72 35.96, 85.49 22.78, 104.28 -0.19 M66.3 47.42 C75.08 35.77, 85.11 23.93, 105.26 1.17 M74.99 45.27 C81.67 38.5, 88.12 32.4, 104.39 14.81 M76.2 45.96 C81.83 38.55, 88.22 33.4, 104.88 12.41 M86.85 44.79 C92.18 38.28, 100.07 30.89, 107.2 26.69 M86.69 47.28 C92.05 41.79, 95.37 36.6, 105.4 24.81 M98.43 47.22 C100.79 43.41, 102.91 38.35, 104.37 38.21 M96.99 46.77 C100.73 43.09, 103.61 39.31, 105.14 37.29" stroke="#868e96" stroke-width="1" fill="none"></path><path d="M-0.6 1.9 C32.14 -0.96, 67.37 -1.76, 104.78 0.93 M0.24 -0.29 C33.82 0.38, 66.95 -0.94, 104.66 -0.02 M102.95 -1.26 C106.04 15.51, 105.75 31.61, 102.26 43.16 M103.4 0.18 C103.67 17.31, 103.51 35.89, 104.12 44.64 M105.22 46.54 C65.63 46.34, 29.4 46.13, 1.24 44.68 M104.21 45.75 C80.16 44.6, 56.25 45.41, 0.62 44.73 M-0.37 43.24 C-0.26 31.76, 0.12 13.06, 1.57 1.98 M0.12 44.56 C0.44 32.63, 0.73 21.9, 0.87 -0.4" stroke="#000000" stroke-width="2" fill="none"></path></g><g stroke-linecap="round"><g transform="translate(416.61910762786863 93.5) rotate(0 18.326450765132904 -0.29511626958850457)"><path d="M-0.38 -0.48 C5.69 -0.43, 30.86 -0.33, 37.03 -0.11" stroke="#000000" stroke-width="2.5" fill="none" stroke-dasharray="8 10"></path></g></g><g stroke-linecap="round"><g transform="translate(541.6191076278686 92.5) rotate(0 43.70576900243762 0.38257277002509227)"><path d="M0.33 0 C14.93 0.1, 72.53 0.87, 87.09 0.75" stroke="#000000" stroke-width="2.5" fill="none" stroke-dasharray="8 10"></path></g></g><g stroke-linecap="round"><g transform="translate(417.91333862543104 154.6244833350181) rotate(0 64.40673805475237 -0.6473590493201868)"><path d="M0.44 -0.56 C21.75 -0.58, 107.06 -0.63, 128.37 -0.74" stroke="#000000" stroke-width="2.5" fill="none" stroke-dasharray="8 10"></path></g></g><g stroke-linecap="round"><g transform="translate(624.2123695731162 154.14735904932013) rotate(0 56.22072185277938 0.7645555138587952)"><path d="M-0.7 0.51 C18.17 0.61, 94.19 0.71, 113.14 1.02" stroke="#000000" stroke-width="2.5" fill="none" stroke-dasharray="8 10"></path></g></g><g stroke-linecap="round"><g transform="translate(719.6191076278686 89.5) rotate(0 93.1220844626427 -1.5609037756919975)"><path d="M0.76 -1 C31.72 -1.34, 154.49 -1.82, 185.49 -2.12" stroke="#000000" stroke-width="2.5" fill="none" stroke-dasharray="8 10"></path></g><g transform="translate(719.6191076278686 89.5) rotate(0 93.1220844626427 -1.5609037756919975)"><path d="M155.69 7.47 C166.54 6.52, 173.11 3.1, 183.51 -0.46" stroke="#000000" stroke-width="2.5" fill="none"></path></g><g transform="translate(719.6191076278686 89.5) rotate(0 93.1220844626427 -1.5609037756919975)"><path d="M155.56 -13.05 C166.42 -8.39, 173.03 -6.2, 183.51 -0.46" stroke="#000000" stroke-width="2.5" fill="none"></path></g></g><g stroke-linecap="round"><g transform="translate(842.6191076278686 153.5) rotate(0 30.359179842472088 -0.030524734637651818)"><path d="M-0.63 0.03 C9.67 -0.09, 50.8 -0.16, 61.35 0.01" stroke="#000000" stroke-width="2.5" fill="none" stroke-dasharray="8 10"></path></g><g transform="translate(842.6191076278686 153.5) rotate(0 30.359179842472088 -0.030524734637651818)"><path d="M33.14 8.19 C40.54 7.89, 49.73 6.1, 62.26 -1.76" stroke="#000000" stroke-width="2.5" fill="none"></path></g><g transform="translate(842.6191076278686 153.5) rotate(0 30.359179842472088 -0.030524734637651818)"><path d="M33.26 -12.33 C40.74 -7.2, 49.91 -3.56, 62.26 -1.76" stroke="#000000" stroke-width="2.5" fill="none"></path></g></g><g transform="translate(919.1191076278686 75.5) rotate(0 33.5 13)"><text x="33.5" y="18" font-family="Virgil, Segoe UI Emoji" font-size="20px" fill="#000000" text-anchor="middle" style="white-space: pre;" direction="ltr">Task 1</text></g><g transform="translate(918.6191076278686 139.5) rotate(0 38 13)"><text x="38" y="18" font-family="Virgil, Segoe UI Emoji" font-size="20px" fill="#000000" text-anchor="middle" style="white-space: pre;" direction="ltr">Task 2</text></g><g transform="translate(530.6191076278686 10) rotate(0 79 18)"><text x="79" y="25" font-family="Virgil, Segoe UI Emoji" font-size="28px" fill="#000000" text-anchor="middle" style="white-space: pre;" direction="ltr">Concurrency</text></g><g transform="translate(545.6191076278686 209.5) rotate(0 73 18)"><text x="73" y="25" font-family="Virgil, Segoe UI Emoji" font-size="28px" fill="#000000" text-anchor="middle" style="white-space: pre;" direction="ltr">Parallelism</text></g><g stroke-linecap="round" transform="translate(284.11910762786863 258) rotate(0 64.5 64.5)"><path d="M32.25 0 M32.25 0 C53.18 -1.25, 78.71 -0.08, 96.75 0 M32.25 0 C47.03 1.2, 63.79 0.29, 96.75 0 M96.75 0 C117.8 1.51, 130.52 11.47, 129 32.25 M96.75 0 C116.45 -0.22, 128.64 12.56, 129 32.25 M129 32.25 C128.7 58.71, 128.78 83.6, 129 96.75 M129 32.25 C127.98 55.78, 128.09 81.24, 129 96.75 M129 96.75 C130.12 119.66, 120.2 130.66, 96.75 129 M129 96.75 C128.54 119.75, 117.28 127.24, 96.75 129 M96.75 129 C80.86 129.08, 65.28 130.46, 32.25 129 M96.75 129 C75.16 129.64, 54.11 128.68, 32.25 129 M32.25 129 C8.91 130.01, -0.62 119.48, 0 96.75 M32.25 129 C12.9 127.63, 0.47 119.59, 0 96.75 M0 96.75 C1.15 72.74, -0.11 52.45, 0 32.25 M0 96.75 C-1.39 74.18, -0.42 50.77, 0 32.25 M0 32.25 C-1.41 11.3, 10.69 0.48, 32.25 0 M0 32.25 C-0.49 10.92, 10.69 -1.94, 32.25 0" stroke="#000000" stroke-width="2" fill="none"></path></g><g transform="translate(327.61910762786863 309.5) rotate(0 21 13)"><text x="21" y="18" font-family="Virgil, Segoe UI Emoji" font-size="20px" fill="#000000" text-anchor="middle" style="white-space: pre;" direction="ltr">CPU</text></g><g stroke-linecap="round" transform="translate(285.11910762786863 415) rotate(0 64.5 64.5)"><path d="M32.25 0 M32.25 0 C56.05 -1.05, 82.38 -1.64, 96.75 0 M32.25 0 C46.47 -0.93, 62.3 -0.29, 96.75 0 M96.75 0 C119.91 1.57, 127.22 9.79, 129 32.25 M96.75 0 C116.81 1.91, 127.56 10.99, 129 32.25 M129 32.25 C130.65 58.67, 130.27 81.06, 129 96.75 M129 32.25 C129.33 46.06, 129.9 60.72, 129 96.75 M129 96.75 C128.47 120.17, 116.27 127.15, 96.75 129 M129 96.75 C130.88 118.86, 117.23 128.46, 96.75 129 M96.75 129 C74.08 128.53, 51.11 130.39, 32.25 129 M96.75 129 C83.47 128.48, 69.75 129.31, 32.25 129 M32.25 129 C10.15 129.53, -1.95 117.68, 0 96.75 M32.25 129 C9.93 129.07, -0.89 116.61, 0 96.75 M0 96.75 C-0.25 70.77, 1.45 45.96, 0 32.25 M0 96.75 C-0.41 78.24, 0.18 60.53, 0 32.25 M0 32.25 C-1.28 10.22, 9.16 -0.85, 32.25 0 M0 32.25 C0.72 11.55, 9.4 -0.07, 32.25 0" stroke="#000000" stroke-width="2" fill="none"></path></g><g transform="translate(328.61910762786863 466.5) rotate(0 21 13)"><text x="21" y="18" font-family="Virgil, Segoe UI Emoji" font-size="20px" fill="#000000" text-anchor="middle" style="white-space: pre;" direction="ltr">CPU</text></g><g stroke-linecap="round" transform="translate(448.61910762786863 263.5) rotate(0 25 22)"><path d="M1.43 0.41 C14.13 0.9, 32.99 1.31, 48.89 0.8 M0.74 -0.38 C18.63 -0.52, 37.53 1.13, 49.68 -0.07 M50.87 -0.16 C50.88 14.83, 48.18 30.59, 49.19 43.58 M50.45 0.34 C50.43 13.69, 49.44 25.47, 49.54 44.05 M48.76 44.38 C36.7 44.4, 21.16 44.44, 1.48 45.02 M50.75 43.77 C38.87 43.98, 25.85 43.36, 0.99 43.59 M-0.72 43.19 C1.54 29.98, -1.79 17.49, 0.35 -1.12 M-0.29 43.45 C0.06 27.92, -0.97 13.3, -0.61 -0.71" stroke="#000000" stroke-width="2" fill="none"></path></g><g stroke-linecap="round" transform="translate(620.6191076278686 263.5) rotate(0 50.5 22)"><path d="M1.59 -1.71 C26.81 -1.47, 57.45 -0.71, 101.87 1.87 M0.47 -0.96 C33.59 0.1, 67.69 -0.15, 101.63 -0.39 M101.05 1.82 C102.09 12.7, 102.25 25.02, 99.83 44.67 M100.27 -0.29 C101.7 16.39, 99.85 34.05, 101.85 44.62 M100.44 44.03 C62.65 42.66, 21.9 45.47, -0.13 43.11 M101.27 44.96 C65.88 44.2, 30.7 45.42, -0.02 44.23 M1.56 42.49 C1.24 32.08, -1.52 17.83, 0.22 -0.7 M-0.27 43.13 C-0.01 32.47, -0.69 21.92, -0.47 -0.01" stroke="#000000" stroke-width="2" fill="none"></path></g><g stroke-linecap="round" transform="translate(734.1191076278686 326.5) rotate(0 50.5 22)"><path d="M0.43 -0.27 C33.22 1.39, 66.24 0.39, 102.75 1.65 M0.18 0.48 C27.62 -0.4, 57.34 -0.7, 101.91 0.08 M100.42 0.52 C101.78 13.89, 102.71 25.11, 99.92 44.35 M100.5 -0.35 C100.93 12.11, 100.79 25.13, 101.04 44.07 M101 44.16 C75.55 44.34, 46.18 41.76, 1.94 42.72 M100.66 43.86 C70.2 43.45, 39.14 44.61, 0.64 44.16 M1.08 45.08 C1.28 32.88, 0.54 20.97, 0.17 -0.23 M-0.64 43.99 C0.31 34.3, -0.45 24.42, 0.69 0.47" stroke="#000000" stroke-width="2" fill="none"></path></g><g stroke-linecap="round"><g transform="translate(412.61910762786863 287.5) rotate(0 17.455587923526764 -0.5206760463430555)"><path d="M-0.81 -0.27 C5.12 -0.37, 29.59 -0.85, 35.72 -0.76" stroke="#000000" stroke-width="2.5" fill="none" stroke-dasharray="8 10"></path></g></g><g stroke-linecap="round"><g transform="translate(412.61910762786863 352.5) rotate(0 159.27712036371233 -0.7703888470156244)"><path d="M0 -0.68 C53.19 -0.78, 265.73 -0.98, 318.56 -0.77" stroke="#000000" stroke-width="2.5" fill="none" stroke-dasharray="8 10"></path></g></g><g stroke-linecap="round"><g transform="translate(499.6191076278687 284.4002571538613) rotate(0 58.824490109947504 0.6248930656610128)"><path d="M0.64 -0.59 C20.4 -0.39, 98.73 0.22, 118.13 0.45 M-0.48 1.71 C19.26 2.11, 98.31 1.5, 117.78 1.51" stroke="#000000" stroke-width="2" fill="none"></path></g><g transform="translate(499.6191076278687 284.4002571538613) rotate(0 58.824490109947504 0.6248930656610128)"><path d="M88.64 13.76 C95.58 9.1, 103.53 8.28, 119.43 1.37 M88.68 11.53 C97.79 8.07, 107.15 6.05, 118.2 1.59" stroke="#000000" stroke-width="2" fill="none"></path></g><g transform="translate(499.6191076278687 284.4002571538613) rotate(0 58.824490109947504 0.6248930656610128)"><path d="M88.56 -6.76 C95.39 -6.04, 103.36 -1.46, 119.43 1.37 M88.61 -8.99 C97.92 -5.96, 107.31 -1.5, 118.2 1.59" stroke="#000000" stroke-width="2" fill="none"></path></g></g><g stroke-linecap="round" transform="translate(735.1191076278686 419.5) rotate(0 50.5 22)"><path d="M0.17 -1.75 C23.44 2.02, 50.94 0.59, 100.43 -0.21 M0.34 -0.16 C23.43 -0.33, 48.02 0.67, 100.88 -0.64 M102.6 0.61 C100.68 11.85, 101.01 22.96, 102.34 44.47 M100.23 0.63 C101.46 11.6, 100.62 21.66, 101.13 43.31 M103 42.41 C70.06 42.55, 36.59 44.58, -0.82 43.72 M101.85 44.84 C74.95 43.25, 47.98 42.72, -0.11 44.09 M1.47 43.88 C-1.7 33.8, -0.15 20.66, 1.49 0.35 M-0.2 43.95 C0.12 34.21, 0.17 24.5, 0.05 -0.6" stroke="#000000" stroke-width="2" fill="none"></path></g><g stroke-linecap="round"><g transform="translate(416.84198726415633 448.7239324457132) rotate(0 154.89642146825784 -0.5393057227134932)"><path d="M-0.62 -0.4 C51.14 -0.49, 258.39 -0.61, 310.42 -0.68" stroke="#000000" stroke-width="2.5" fill="none" stroke-dasharray="8 10"></path></g></g><g stroke-linecap="round" transform="translate(618.1191076278686 486.5) rotate(0 50.5 22)"><path d="M-0.14 0.18 C25.05 -0.28, 46.18 -2.62, 101.85 -0.37 M-0.57 0.47 C22.12 0.34, 44.93 0.28, 100.78 -0.46 M102.92 0.35 C100.11 12.2, 102.75 20.89, 102.98 43.35 M100.43 0.23 C100.11 13.38, 100.16 25.16, 100.32 43.87 M100.26 42.96 C78.42 42.83, 54.01 44.4, -1.54 43.52 M101.74 44.68 C75.78 43.35, 53.23 45.23, 0.38 43.86 M-1.91 44.14 C-1.87 28.3, 0.18 16.16, 0.97 -1.17 M-0.12 44.36 C0.16 28.92, -0.68 14.16, -0.21 0.29" stroke="#000000" stroke-width="2" fill="none"></path></g><g stroke-linecap="round"><g transform="translate(414.61910762786863 505.5) rotate(0 99.310291826725 1.7967678427696683)"><path d="M0.49 -0.26 C33.42 0.5, 164.97 3.13, 198.13 3.86" stroke="#000000" stroke-width="2.5" fill="none" stroke-dasharray="8 10"></path></g></g><g stroke-linecap="round"><g transform="translate(500.61910762786863 288.0041621468431) rotate(0 115.0402052962454 31.809950800308172)"><path d="M0.62 0.5 C39.11 11.09, 192.27 52.22, 230.59 62.4 M-0.51 -0.28 C37.81 10.6, 191.09 53.44, 229.43 63.9" stroke="#000000" stroke-width="2" fill="none"></path></g><g transform="translate(500.61910762786863 288.0041621468431) rotate(0 115.0402052962454 31.809950800308172)"><path d="M200.36 65.58 C207.57 64.67, 214.42 65.48, 227.58 64.62 M198.56 65.31 C208.68 65.06, 217.47 65.77, 228.66 64.57" stroke="#000000" stroke-width="2" fill="none"></path></g><g transform="translate(500.61910762786863 288.0041621468431) rotate(0 115.0402052962454 31.809950800308172)"><path d="M205.83 45.81 C211.37 50.32, 216.73 56.53, 227.58 64.62 M204.03 45.53 C212.5 51.06, 219.68 57.57, 228.66 64.57" stroke="#000000" stroke-width="2" fill="none"></path></g></g><g stroke-linecap="round"><g transform="translate(502.61910762786863 284.75611414584876) rotate(0 114.73008162271694 81.94462551805492)"><path d="M-1.05 -0.11 C36.92 27.05, 189.7 136.31, 228.21 163.52 M0.6 -1.22 C38.92 26.11, 192.32 137.52, 230.51 165.1" stroke="#000000" stroke-width="2" fill="none"></path></g><g transform="translate(502.61910762786863 284.75611414584876) rotate(0 114.73008162271694 81.94462551805492)"><path d="M201.48 155.56 C211.44 161.52, 220.39 163.39, 231.04 166.74 M200.88 155.96 C211.3 159.65, 221.4 161.72, 229.56 165.33" stroke="#000000" stroke-width="2" fill="none"></path></g><g transform="translate(502.61910762786863 284.75611414584876) rotate(0 114.73008162271694 81.94462551805492)"><path d="M213.51 138.94 C219.55 150.33, 224.5 157.72, 231.04 166.74 M212.92 139.34 C219.12 148.79, 225.04 156.64, 229.56 165.33" stroke="#000000" stroke-width="2" fill="none"></path></g></g><g stroke-linecap="round"><g transform="translate(499.61910762786863 283.81813584043584) rotate(0 58.37120088723023 115.87900874663768)"><path d="M0.68 -0.98 C20.02 37.62, 98.13 194.11, 117.16 232.74 M-0.42 1.11 C18.77 39.93, 97.22 192.76, 116.82 231.19" stroke="#000000" stroke-width="2" fill="none"></path></g><g transform="translate(499.61910762786863 283.81813584043584) rotate(0 58.37120088723023 115.87900874663768)"><path d="M93.2 212.69 C105.49 216.8, 110.89 226.25, 114.91 233.08 M93.96 210.73 C100.04 216.19, 105.71 220.52, 116.42 231.98" stroke="#000000" stroke-width="2" fill="none"></path></g><g transform="translate(499.61910762786863 283.81813584043584) rotate(0 58.37120088723023 115.87900874663768)"><path d="M111.47 203.35 C116.65 211.24, 114.86 224.36, 114.91 233.08 M112.23 201.39 C113.86 209.02, 115.03 215.65, 116.42 231.98" stroke="#000000" stroke-width="2" fill="none"></path></g></g><g stroke-linecap="round"><g transform="translate(723.6191076278686 286.5) rotate(0 88.58061081171036 -1.5355079293250924)"><path d="M0.3 -0.58 C29.89 -1.09, 147.42 -2.44, 176.86 -2.49" stroke="#000000" stroke-width="2.5" fill="none" stroke-dasharray="8 10"></path></g><g transform="translate(723.6191076278686 286.5) rotate(0 88.58061081171036 -1.5355079293250924)"><path d="M147.77 9.41 C154.8 6.89, 164.37 3.48, 175.31 -1.83" stroke="#000000" stroke-width="2.5" fill="none"></path></g><g transform="translate(723.6191076278686 286.5) rotate(0 88.58061081171036 -1.5355079293250924)"><path d="M147.62 -11.11 C154.78 -8.58, 164.39 -6.94, 175.31 -1.83" stroke="#000000" stroke-width="2.5" fill="none"></path></g></g><g stroke-linecap="round"><g transform="translate(838.6191076278686 348.4452956427631) rotate(0 29.724275243282307 0.7093507103405727)"><path d="M-0.71 0.43 C9.34 0.45, 50.15 0.58, 60.16 0.99" stroke="#000000" stroke-width="2.5" fill="none" stroke-dasharray="8 10"></path></g><g transform="translate(838.6191076278686 348.4452956427631) rotate(0 29.724275243282307 0.7093507103405727)"><path d="M32.49 10.98 C38.13 6.98, 49.49 5.83, 59.87 1.1" stroke="#000000" stroke-width="2.5" fill="none"></path></g><g transform="translate(838.6191076278686 348.4452956427631) rotate(0 29.724275243282307 0.7093507103405727)"><path d="M32.88 -9.54 C38.55 -7.64, 49.8 -2.89, 59.87 1.1" stroke="#000000" stroke-width="2.5" fill="none"></path></g></g><g stroke-linecap="round"><g transform="translate(838.8948323845864 439.3403036375071) rotate(0 29.105143010616246 1.2305533319013193)"><path d="M-1.02 0.61 C8.67 1.09, 48.99 1.95, 59.23 1.84" stroke="#000000" stroke-width="2.5" fill="none" stroke-dasharray="8 10"></path></g><g transform="translate(838.8948323845864 439.3403036375071) rotate(0 29.105143010616246 1.2305533319013193)"><path d="M31.98 10.6 C43.59 8.92, 51.42 5.3, 59.15 3.24" stroke="#000000" stroke-width="2.5" fill="none"></path></g><g transform="translate(838.8948323845864 439.3403036375071) rotate(0 29.105143010616246 1.2305533319013193)"><path d="M32.14 -9.93 C43.51 -3.59, 51.28 0.8, 59.15 3.24" stroke="#000000" stroke-width="2.5" fill="none"></path></g></g><g stroke-linecap="round"><g transform="translate(721.6191076278686 509.4954696446621) rotate(0 90.02627922296523 1.1681979238027225)"><path d="M0.28 1.08 C30.16 1.27, 149.88 1.07, 179.77 1.25" stroke="#000000" stroke-width="2.5" fill="none" stroke-dasharray="8 10"></path></g><g transform="translate(721.6191076278686 509.4954696446621) rotate(0 90.02627922296523 1.1681979238027225)"><path d="M153.37 11.91 C161.64 8.12, 172.82 5.55, 181.05 1.81" stroke="#000000" stroke-width="2.5" fill="none"></path></g><g transform="translate(721.6191076278686 509.4954696446621) rotate(0 90.02627922296523 1.1681979238027225)"><path d="M153.4 -8.61 C161.69 -5.38, 172.86 -0.92, 181.05 1.81" stroke="#000000" stroke-width="2.5" fill="none"></path></g></g><g transform="translate(907.6191076278686 272.5) rotate(0 44 13)"><text x="44" y="18" font-family="Virgil, Segoe UI Emoji" font-size="20px" fill="#000000" text-anchor="middle" style="white-space: pre;" direction="ltr">Thread 1</text></g><g transform="translate(905.6191076278686 338.5) rotate(0 48 13)"><text x="48" y="18" font-family="Virgil, Segoe UI Emoji" font-size="20px" fill="#000000" text-anchor="middle" style="white-space: pre;" direction="ltr">Thread 2</text></g><g transform="translate(907.6191076278686 429.5) rotate(0 48 13)"><text x="48" y="18" font-family="Virgil, Segoe UI Emoji" font-size="20px" fill="#000000" text-anchor="middle" style="white-space: pre;" direction="ltr">Thread 3</text></g><g transform="translate(909.1191076278686 499.5) rotate(0 47.5 13)"><text x="47.5" y="18" font-family="Virgil, Segoe UI Emoji" font-size="20px" fill="#000000" text-anchor="middle" style="white-space: pre;" direction="ltr">Thread 4</text></g><g transform="translate(11.11910762786863 75.5) rotate(0 104.5 36)"><text x="104.5" y="25" font-family="Virgil, Segoe UI Emoji" font-size="28px" fill="#000000" text-anchor="middle" style="white-space: pre;" direction="ltr">Multi-Threaded</text><text x="104.5" y="61" font-family="Virgil, Segoe UI Emoji" font-size="28px" fill="#000000" text-anchor="middle" style="white-space: pre;" direction="ltr">Address Space</text></g><g transform="translate(1035.1191076278687 83.5) rotate(0 106.5 39)"><text x="106.5" y="18" font-family="Virgil, Segoe UI Emoji" font-size="20px" fill="#000000" text-anchor="middle" style="white-space: pre;" direction="ltr">Multiple tasks running</text><text x="106.5" y="44" font-family="Virgil, Segoe UI Emoji" font-size="20px" fill="#000000" text-anchor="middle" style="white-space: pre;" direction="ltr">on a single processor</text><text x="106.5" y="70" font-family="Virgil, Segoe UI Emoji" font-size="20px" fill="#000000" text-anchor="middle" style="white-space: pre;" direction="ltr">at the same time</text></g><g transform="translate(1016.1191076278686 351.5) rotate(0 135.5 52)"><text x="135.5" y="18" font-family="Virgil, Segoe UI Emoji" font-size="20px" fill="#000000" text-anchor="middle" style="white-space: pre;" direction="ltr">One task broken down</text><text x="135.5" y="44" font-family="Virgil, Segoe UI Emoji" font-size="20px" fill="#000000" text-anchor="middle" style="white-space: pre;" direction="ltr">and run by multiple threads</text><text x="135.5" y="70" font-family="Virgil, Segoe UI Emoji" font-size="20px" fill="#000000" text-anchor="middle" style="white-space: pre;" direction="ltr">on multiple processors</text><text x="135.5" y="96" font-family="Virgil, Segoe UI Emoji" font-size="20px" fill="#000000" text-anchor="middle" style="white-space: pre;" direction="ltr">at the same time</text></g></svg>