<svg version="1.1" xmlns="http://www.w3.org/2000/svg" viewBox="0 0 2756.946119368785 1677.6322426460615" width="2756.946119368785" height="1677.6322426460615">
  <!-- svg-source:excalidraw -->
  
  <defs>
    <style>
      @font-face {
        font-family: "Virgil";
        src: url("https://excalidraw.com/Virgil.woff2");
      }
      @font-face {
        font-family: "Cascadia";
        src: url("https://excalidraw.com/Cascadia.woff2");
      }
    </style>
  </defs>
  <rect x="0" y="0" width="2756.946119368785" height="1677.6322426460615" fill="#ffffff"></rect><g stroke-linecap="round" transform="translate(852.1266653264015 857.4072995353954) rotate(0 144.37664358573664 139.28454811941108)"><path d="M178.87 3.68 C193.87 5.23, 210.48 14.88, 223.82 23.11 C237.17 31.34, 249.4 41.3, 258.95 53.08 C268.5 64.87, 276.27 79.46, 281.14 93.81 C286 108.16, 288.01 124.29, 288.13 139.18 C288.25 154.07, 286.95 168.98, 281.87 183.17 C276.79 197.36, 267.45 212.15, 257.65 224.32 C247.85 236.49, 235.87 247.95, 223.08 256.19 C210.28 264.44, 195.8 270.18, 180.89 273.79 C165.97 277.41, 149.4 279, 133.59 277.88 C117.77 276.76, 100.3 273.08, 86 267.09 C71.7 261.1, 59.14 252.03, 47.8 241.96 C36.47 231.9, 25.71 219.89, 18 206.72 C10.3 193.54, 4.21 177.87, 1.57 162.9 C-1.08 147.94, -0.42 131.83, 2.12 116.92 C4.67 102.02, 9.62 86.8, 16.85 73.46 C24.08 60.11, 34.04 47, 45.53 36.86 C57.02 26.71, 71.29 18.61, 85.78 12.58 C100.28 6.55, 116.2 2.02, 132.5 0.69 C148.8 -0.63, 174.61 3.37, 183.59 4.61 C192.56 5.85, 187.07 5.87, 186.35 8.13 M137.66 0.8 C152.01 -1.96, 168.38 1.77, 183.24 5.76 C198.1 9.75, 214 16.27, 226.81 24.74 C239.63 33.2, 251.13 44.46, 260.13 56.54 C269.12 68.62, 275.88 82.47, 280.79 97.2 C285.69 111.93, 289.93 129.92, 289.55 144.91 C289.16 159.89, 284.25 173.49, 278.48 187.11 C272.71 200.73, 264.62 215.02, 254.93 226.63 C245.25 238.24, 233.53 248.64, 220.36 256.77 C207.2 264.91, 191.33 271.89, 175.93 275.42 C160.54 278.94, 143.73 279.67, 128 277.93 C112.26 276.19, 95.78 271.61, 81.51 264.98 C67.23 258.35, 53.15 248.75, 42.35 238.16 C31.56 227.56, 23.52 214.55, 16.73 201.42 C9.93 188.29, 4 174.2, 1.58 159.36 C-0.85 144.53, -0.87 127.33, 2.18 112.41 C5.24 97.5, 12.08 83.1, 19.9 69.86 C27.71 56.62, 37.53 42.78, 49.07 32.97 C60.62 23.16, 74.68 16.26, 89.16 11.01 C103.64 5.77, 127.82 2.65, 135.96 1.49 C144.09 0.33, 137.83 1.97, 137.96 4.05" stroke="#000000" stroke-width="2" fill="none"></path></g><g transform="translate(937.068647644509 961.0474085359509) rotate(0 61.61585443019493 38.30174734849953)"><text x="0" y="53.60349469699909" font-family="Virgil, Segoe UI Emoji" font-size="59.95056106721669px" fill="#000000" text-anchor="start" style="white-space: pre;" direction="ltr">CPU</text></g><g stroke-linecap="round" transform="translate(835.2836547874485 1184.8389199902376) rotate(0 179.83749865311745 80.73582512930443)"><path d="M0.35 -1.1 C83.3 -1.11, 164.03 -1.45, 360.18 0.59 M0.48 -0.56 C77.42 0.1, 154.53 0.13, 359.52 -0.03 M360.84 -1.87 C358.39 48.5, 360.26 99.06, 359.33 162.74 M359.62 0.71 C359.68 57.93, 359.43 114.96, 358.99 161.55 M358.42 161.08 C246.74 161.53, 134.46 162, 0.56 160.24 M359.2 160.95 C261 161.15, 162.46 160.4, 0.24 160.97 M1.21 161.83 C1.31 119.9, 0.18 77.23, -1.33 -0.42 M-0.27 162.45 C-1.33 101.33, -0.7 41.08, -0.18 0.46" stroke="#000000" stroke-width="2" fill="none"></path></g><g transform="translate(904.7453346221396 1224.8234384004409) rotate(0 111.22880540953815 41.597764624705405)"><text x="0" y="58.19552924941077" font-family="Virgil, Segoe UI Emoji" font-size="65.10954462997358px" fill="#000000" text-anchor="start" style="white-space: pre;" direction="ltr">Memory</text></g><g stroke-linecap="round" transform="translate(840.7211840132318 1377.6608056129576) rotate(0 179.5640397333624 75.2712801420032)"><path d="M-1.25 -0.06 C121.4 0.51, 242.99 -0.95, 358.91 -0.57 M0.23 -0.43 C92.55 -1.03, 185.63 -1.43, 359.03 -0.57 M359.67 -0.61 C360.42 51.91, 358.87 104.93, 357.26 150.05 M359.51 0.59 C359.02 36.09, 359.62 71.22, 359.3 149.76 M359.66 151.55 C247.85 150.36, 136.42 148.82, 0.68 150.12 M359.15 150.53 C244.29 149.14, 128.51 149.27, 0.49 150.37 M-1.17 152.24 C-0.96 112.13, 1.39 76.49, 1.34 0.85 M-0.26 150.29 C-1.07 99.3, 0.01 47.49, 0.46 0" stroke="#000000" stroke-width="2" fill="none"></path></g><g transform="translate(874.9812808727688 1420.3760662968225) rotate(0 144.64881266729424 36.559590014810624)"><text x="0" y="51.119180029621305" font-family="Virgil, Segoe UI Emoji" font-size="57.22370611013837px" fill="#000000" text-anchor="start" style="white-space: pre;" direction="ltr">Disk Drive</text></g><g stroke-linecap="round" transform="translate(672.023471063724 451.5122429990337) rotate(0 339.5568994820744 576.5968707622467)"><path d="M0.63 0.79 C151.53 1.32, 302.35 1.38, 679.44 0.79 M0.09 -0.2 C215.93 -0.93, 431.22 -0.62, 679.31 0.13 M679.48 -0.71 C682.16 350.58, 681.97 699.79, 678.36 1153.75 M679.23 -0.12 C678.79 344.16, 678.2 688.75, 678.94 1153.58 M678.64 1153.07 C456.68 1154.96, 233.7 1153.64, 0.26 1153.81 M679.27 1152.98 C537 1154.33, 395.21 1153.63, -0.27 1153.03 M-0.23 1153.06 C-1.6 861.5, -2.57 570.23, -0.53 -0.14 M0.05 1153.32 C-4.79 740, -4.78 326.43, 0.03 -0.24" stroke="#000000" stroke-width="2" fill="none"></path></g><g transform="translate(746.916744210828 588.1320689865785) rotate(0 240 36)"><text x="0" y="50" font-family="Virgil, Segoe UI Emoji" font-size="56.46175360775282px" fill="#000000" text-anchor="start" style="white-space: pre;" direction="ltr">Operating System</text></g><g transform="translate(102.3127357673468 990.9308206778484) rotate(0 196.0877263243741 73.93471648296071)"><text x="0" y="103.86943296592139" font-family="Virgil, Segoe UI Emoji" font-size="115.7239040602863px" fill="#000000" text-anchor="start" style="white-space: pre;" direction="ltr">INPUT</text></g><g transform="translate(1528.0317949603077 992.6741269926687) rotate(0 273.5 78)"><text x="0" y="110" font-family="Virgil, Segoe UI Emoji" font-size="123.4026402435147px" fill="#000000" text-anchor="start" style="white-space: pre;" direction="ltr">OUTPUT</text></g><g stroke-linecap="round"><g transform="translate(500.22455261187065 1064.477550555971) rotate(0 77.57303852164321 -0.007915564331369751)"><path d="M0.36 -0.27 C26.55 -0.27, 130.48 -0.04, 156.05 0.02 M-0.9 -1.46 C25.31 -1.28, 129.54 0.98, 155.7 1.44" stroke="#000000" stroke-width="2" fill="none"></path></g><g transform="translate(500.22455261187065 1064.477550555971) rotate(0 77.57303852164321 -0.007915564331369751)"><path d="M126.86 13.05 C132.98 7.1, 139.1 6.84, 156.73 2.08 M127.64 11.17 C136.09 8.06, 146.59 3.62, 155.4 2.18" stroke="#000000" stroke-width="2" fill="none"></path></g><g transform="translate(500.22455261187065 1064.477550555971) rotate(0 77.57303852164321 -0.007915564331369751)"><path d="M127.27 -7.46 C133.3 -9.06, 139.34 -4.96, 156.73 2.08 M128.04 -9.35 C136.38 -5.6, 146.74 -3.21, 155.4 2.18" stroke="#000000" stroke-width="2" fill="none"></path></g></g><g stroke-linecap="round"><g transform="translate(1397.3882800958193 1069.9127295441315) rotate(0 60.25470446617112 -2.586507399516222)"><path d="M-0.02 0.84 C20.03 -0.12, 99.8 -5.09, 119.84 -6.01 M-1.5 0.23 C18.97 -0.55, 101.91 -3.63, 122 -4.76" stroke="#000000" stroke-width="2" fill="none"></path></g><g transform="translate(1397.3882800958193 1069.9127295441315) rotate(0 60.25470446617112 -2.586507399516222)"><path d="M95.7 5.03 C100.53 2.64, 109.89 -0.21, 122.86 -4.49 M93.45 7.08 C103.05 3.26, 113.25 -0.35, 122.81 -4.84" stroke="#000000" stroke-width="2" fill="none"></path></g><g transform="translate(1397.3882800958193 1069.9127295441315) rotate(0 60.25470446617112 -2.586507399516222)"><path d="M94.77 -15.47 C99.8 -12.58, 109.4 -10.16, 122.86 -4.49 M92.52 -13.42 C102.51 -10.39, 113.02 -7.15, 122.81 -4.84" stroke="#000000" stroke-width="2" fill="none"></path></g></g><g stroke-linecap="round"><g transform="translate(759.9850182575611 676.5260779289747) rotate(0 -1.903139660504877 364.6691358646964)"><path d="M0.57 0.6 C0.1 122.06, -2.75 608.27, -3.14 729.47 M-0.59 -0.13 C-1.24 120.92, -4.13 606.22, -4.37 727.67" stroke="#000000" stroke-width="2" fill="none"></path></g></g><g stroke-linecap="round"><g transform="translate(757.512389156576 1405.7316406385544) rotate(0 33.63209441455675 -1.078057623127961)"><path d="M1.08 -0.17 C12.12 -0.65, 56.09 -1.6, 67.08 -1.98 M0.19 -1.31 C11.1 -1.67, 55.62 -0.5, 66.71 -0.53" stroke="#000000" stroke-width="2" fill="none"></path></g><g transform="translate(757.512389156576 1405.7316406385544) rotate(0 33.63209441455675 -1.078057623127961)"><path d="M38.11 11.21 C48.44 7.18, 57.99 1.69, 67.58 0.33 M38.31 9.39 C49.76 4.88, 61.2 1.59, 66.47 0.32" stroke="#000000" stroke-width="2" fill="none"></path></g><g transform="translate(757.512389156576 1405.7316406385544) rotate(0 33.63209441455675 -1.078057623127961)"><path d="M38.37 -9.3 C48.76 -5.8, 58.21 -3.77, 67.58 0.33 M38.58 -11.13 C49.85 -7.62, 61.2 -2.89, 66.47 0.32" stroke="#000000" stroke-width="2" fill="none"></path></g></g><g stroke-linecap="round"><g transform="translate(1202.9275902232955 666.3465073744237) rotate(0 -1.2671530464523926 178.20706148275306)"><path d="M0.58 -0.44 C0.06 59.09, -1.96 297.23, -2.35 357.11 M-0.57 -1.71 C-1.28 57.94, -2.87 298.35, -3.12 358.12" stroke="#000000" stroke-width="2" fill="none"></path></g></g><g stroke-linecap="round"><g transform="translate(1201.404701391732 1022.8852406200986) rotate(0 -26.22470638891008 -2.3191140002039674)"><path d="M0.07 -0.18 C-8.71 -0.8, -43.14 -3.57, -51.57 -4.45 M-1.35 -1.33 C-10.39 -1.68, -44.3 -2.38, -52.52 -2.95" stroke="#000000" stroke-width="2" fill="none"></path></g><g transform="translate(1201.404701391732 1022.8852406200986) rotate(0 -26.22470638891008 -2.3191140002039674)"><path d="M-28.17 -10.81 C-37.78 -5.87, -49.27 -3.42, -53.94 -2.23 M-28.76 -11.71 C-36.2 -7.54, -43.68 -5.23, -52.76 -2.55" stroke="#000000" stroke-width="2" fill="none"></path></g><g transform="translate(1201.404701391732 1022.8852406200986) rotate(0 -26.22470638891008 -2.3191140002039674)"><path d="M-28.9 6.88 C-38.11 4.82, -49.32 0.27, -53.94 -2.23 M-29.5 5.97 C-36.53 4.19, -43.76 0.56, -52.76 -2.55" stroke="#000000" stroke-width="2" fill="none"></path></g></g><g stroke-linecap="round"><g transform="translate(1234.0655905326664 667.5394369591486) rotate(0 -1.2987038463216436 289.03849582573736)"><path d="M-0.5 -0.54 C-1.02 95.62, -3.65 480.93, -4.03 577.59 M1.44 1.79 C1.36 98.01, -1.07 482.67, -1.89 578.62" stroke="#000000" stroke-width="2" fill="none"></path></g></g><g stroke-linecap="round"><g transform="translate(1231.2736276747999 1247.0595529223688) rotate(0 -15.370704738617007 -0.6484016174264298)"><path d="M0.76 -0.11 C-4.66 -0.37, -26.42 -1.19, -31.5 -1.35 M-0.3 -1.22 C-5.41 -1.31, -24.17 -0.21, -29.1 0.05" stroke="#000000" stroke-width="2" fill="none"></path></g><g transform="translate(1231.2736276747999 1247.0595529223688) rotate(0 -15.370704738617007 -0.6484016174264298)"><path d="M-15.03 -6.8 C-20.67 -2.11, -25.7 -1.7, -28.94 -0.71 M-14.87 -5.34 C-19.42 -4.09, -22.86 -3.25, -29.73 0.54" stroke="#000000" stroke-width="2" fill="none"></path></g><g transform="translate(1231.2736276747999 1247.0595529223688) rotate(0 -15.370704738617007 -0.6484016174264298)"><path d="M-14.46 3.76 C-20.33 4.41, -25.59 0.78, -28.94 -0.71 M-14.29 5.22 C-18.89 3.72, -22.48 1.8, -29.73 0.54" stroke="#000000" stroke-width="2" fill="none"></path></g></g><g transform="translate(1418.4347192494208 641.641860407733) rotate(333.8989848790802 169.7135371810773 33.22052217161516)"><text x="0" y="46.4410443432303" font-family="Virgil, Segoe UI Emoji" font-size="51.99733905122372px" fill="#000000" text-anchor="start" style="white-space: pre;" direction="ltr">Virtualization</text></g><g transform="translate(1422.935601861272 701.7006030773696) rotate(0 123.78767438667376 -68.54443615955668)" stroke="none"><path fill="#000000" d="M -2.62,0 Q -2.62,0 -2.66,-1.00 -2.69,-2.01 -2.76,-3.50 -2.83,-4.99 -2.89,-6.43 -2.94,-7.86 -2.92,-9.84 -2.89,-11.81 -2.78,-12.99 -2.67,-14.16 -2.53,-15.39 -2.39,-16.61 -2.22,-17.85 -2.05,-19.08 -1.86,-20.24 -1.67,-21.40 -1.30,-23.43 -0.92,-25.45 -0.47,-27.28 -0.01,-29.10 0.46,-30.79 0.94,-32.47 1.53,-34.15 2.11,-35.83 3.09,-37.61 4.07,-39.39 4.77,-40.29 5.47,-41.20 6.28,-42.10 7.09,-42.99 8.00,-43.88 8.91,-44.76 9.89,-45.63 10.86,-46.49 11.84,-47.33 12.83,-48.17 13.70,-48.94 14.57,-49.71 16.07,-50.97 17.57,-52.24 18.81,-53.20 20.06,-54.17 21.55,-55.09 23.05,-56.01 24.65,-56.90 26.26,-57.79 28.02,-58.62 29.79,-59.45 31.35,-60.13 32.92,-60.82 34.33,-61.46 35.74,-62.09 37.28,-62.69 38.81,-63.29 40.46,-63.72 42.12,-64.15 43.85,-64.42 45.58,-64.68 47.37,-64.75 49.16,-64.83 50.87,-64.84 52.59,-64.85 54.29,-64.85 55.99,-64.85 58.06,-64.57 60.13,-64.29 61.85,-63.80 63.58,-63.31 65.08,-62.81 66.58,-62.31 67.89,-61.82 69.19,-61.34 70.35,-60.87 71.50,-60.40 72.59,-59.93 73.69,-59.47 74.80,-59.03 75.91,-58.58 77.06,-58.11 78.21,-57.63 79.30,-57.17 80.38,-56.71 81.51,-56.16 82.63,-55.61 83.67,-54.95 84.71,-54.30 85.77,-53.44 86.84,-52.58 87.70,-51.72 88.56,-50.86 89.22,-49.93 89.89,-49.00 90.62,-47.83 91.35,-46.66 91.94,-45.39 92.54,-44.13 92.83,-43.24 93.13,-42.35 93.19,-41.92 93.24,-41.48 93.20,-41.05 93.15,-40.61 93.00,-40.20 92.85,-39.79 92.61,-39.42 92.36,-39.06 92.04,-38.77 91.71,-38.47 91.33,-38.26 90.94,-38.05 90.52,-37.94 90.09,-37.83 89.66,-37.83 89.22,-37.82 88.79,-37.92 88.36,-38.02 87.97,-38.22 87.58,-38.42 87.25,-38.70 86.92,-38.99 86.66,-39.35 86.41,-39.71 86.25,-40.11 86.09,-40.52 86.04,-41.92 85.99,-43.32 86.00,-44.68 86.02,-46.05 85.95,-47.22 85.88,-48.40 85.59,-49.89 85.30,-51.37 85.23,-52.46 85.15,-53.55 85.42,-55.33 85.69,-57.10 86.31,-58.37 86.93,-59.63 87.74,-60.83 88.56,-62.02 89.38,-63.14 90.20,-64.25 91.05,-65.38 91.89,-66.51 92.81,-67.65 93.72,-68.79 94.63,-69.86 95.53,-70.93 96.35,-71.90 97.17,-72.86 98.00,-73.75 98.82,-74.63 99.73,-75.49 100.64,-76.34 101.58,-77.18 102.53,-78.01 103.56,-78.87 104.59,-79.73 105.71,-80.60 106.83,-81.47 108.11,-82.35 109.38,-83.23 110.75,-84.10 112.12,-84.97 113.51,-85.78 114.89,-86.58 116.23,-87.26 117.56,-87.93 118.74,-88.45 119.93,-88.97 120.93,-89.36 121.94,-89.75 123.71,-90.21 125.48,-90.68 127.01,-90.95 128.53,-91.23 130.33,-91.44 132.12,-91.64 134.04,-91.78 135.96,-91.91 137.84,-91.95 139.73,-91.98 141.42,-92.01 143.12,-92.04 144.61,-92.06 146.11,-92.09 147.45,-92.05 148.79,-92.01 150.02,-91.70 151.25,-91.40 152.32,-90.87 153.39,-90.34 154.38,-89.61 155.37,-88.88 156.42,-87.89 157.47,-86.90 158.31,-85.89 159.14,-84.89 159.64,-83.89 160.13,-82.89 160.53,-81.50 160.93,-80.11 158.93,-80.08 156.92,-80.06 155.96,-79.37 154.99,-78.68 154.98,-80.12 154.96,-81.56 154.96,-82.91 154.97,-84.26 155.00,-85.34 155.04,-86.41 155.40,-87.86 155.76,-89.31 156.59,-91.06 157.42,-92.80 158.12,-93.89 158.81,-94.98 159.53,-96.15 160.26,-97.31 161.11,-98.64 161.96,-99.96 162.85,-101.31 163.75,-102.65 164.62,-103.95 165.49,-105.25 166.38,-106.53 167.28,-107.80 168.19,-109.05 169.11,-110.29 170.02,-111.50 170.94,-112.70 171.90,-113.90 172.86,-115.11 173.89,-116.28 174.92,-117.45 175.91,-118.56 176.90,-119.67 177.93,-120.78 178.95,-121.88 180.06,-122.96 181.16,-124.04 182.23,-125.04 183.30,-126.04 184.35,-126.95 185.39,-127.86 186.42,-128.68 187.44,-129.51 188.52,-130.27 189.60,-131.03 190.78,-131.74 191.96,-132.46 193.18,-133.11 194.41,-133.76 195.67,-134.33 196.93,-134.91 198.21,-135.42 199.48,-135.94 200.73,-136.39 201.98,-136.83 203.14,-137.19 204.29,-137.56 205.32,-137.88 206.35,-138.20 208.14,-138.70 209.94,-139.21 211.76,-139.49 213.58,-139.76 215.11,-139.91 216.63,-140.07 217.95,-140.13 219.26,-140.19 220.70,-140.25 222.13,-140.31 223.47,-140.21 224.80,-140.12 225.97,-139.80 227.15,-139.49 228.43,-139.09 229.72,-138.68 230.77,-138.25 231.81,-137.81 232.80,-137.39 233.80,-136.97 235.03,-136.44 236.26,-135.91 237.48,-135.31 238.70,-134.71 239.68,-134.13 240.66,-133.56 241.93,-132.70 243.21,-131.85 244.21,-131.02 245.20,-130.20 246.19,-129.28 247.18,-128.35 249.11,-125.60 251.03,-122.85 251.12,-122.27 251.20,-121.68 251.09,-121.10 250.99,-120.52 250.70,-120.01 250.42,-119.49 249.98,-119.09 249.55,-118.70 249.01,-118.46 248.47,-118.22 247.88,-118.17 247.29,-118.11 246.72,-118.25 246.14,-118.39 245.64,-118.70 245.14,-119.01 244.77,-119.47 244.40,-119.93 244.19,-120.48 243.98,-121.03 243.96,-121.62 243.94,-122.21 244.11,-122.78 244.27,-123.34 244.61,-123.82 244.95,-124.31 245.43,-124.65 245.91,-125.00 246.47,-125.18 247.03,-125.36 247.62,-125.35 248.21,-125.34 248.77,-125.14 249.32,-124.94 249.78,-124.57 250.25,-124.21 250.57,-123.71 250.89,-123.22 251.04,-122.65 251.19,-122.08 251.14,-121.49 251.10,-120.90 250.87,-120.36 250.64,-119.81 250.25,-119.37 249.86,-118.93 249.35,-118.63 248.84,-118.34 248.26,-118.22 247.69,-118.11 247.10,-118.18 246.51,-118.26 245.98,-118.51 245.45,-118.77 245.03,-119.18 244.61,-119.60 244.35,-120.12 244.08,-120.65 244.08,-120.65 244.08,-120.65 243.08,-121.94 242.08,-123.22 241.32,-123.99 240.56,-124.75 239.72,-125.49 238.88,-126.23 237.94,-126.89 237.00,-127.56 235.75,-128.29 234.49,-129.03 233.41,-129.54 232.33,-130.04 231.12,-130.55 229.91,-131.05 228.65,-131.63 227.39,-132.22 226.25,-132.63 225.10,-133.05 223.97,-133.44 222.83,-133.83 221.58,-133.88 220.33,-133.93 219.25,-133.96 218.17,-133.99 216.91,-134.00 215.65,-134.01 214.13,-133.91 212.61,-133.81 211.12,-133.60 209.64,-133.39 207.73,-132.91 205.82,-132.43 204.76,-132.14 203.69,-131.84 202.57,-131.47 201.45,-131.09 200.26,-130.61 199.07,-130.14 197.95,-129.64 196.82,-129.14 195.72,-128.57 194.62,-128.00 193.56,-127.39 192.51,-126.77 191.54,-126.13 190.56,-125.49 189.60,-124.77 188.64,-124.05 187.66,-123.23 186.69,-122.42 185.67,-121.47 184.65,-120.52 183.64,-119.51 182.64,-118.50 181.67,-117.43 180.70,-116.35 179.75,-115.24 178.79,-114.14 177.88,-113.03 176.96,-111.93 176.08,-110.76 175.21,-109.59 174.37,-108.39 173.53,-107.19 172.73,-105.98 171.93,-104.77 171.16,-103.50 170.39,-102.24 169.65,-100.92 168.92,-99.59 168.21,-98.23 167.50,-96.87 166.83,-95.47 166.16,-94.08 165.53,-92.76 164.90,-91.45 164.06,-89.78 163.22,-88.11 162.81,-86.68 162.40,-85.24 162.40,-83.80 162.41,-82.35 162.40,-81.16 162.40,-79.97 162.31,-78.58 162.22,-77.19 161.82,-76.13 161.43,-75.06 160.49,-74.44 159.55,-73.81 157.53,-74.02 155.50,-74.23 154.83,-75.29 154.15,-76.34 153.98,-77.74 153.80,-79.14 153.28,-80.39 152.75,-81.63 152.04,-82.47 151.33,-83.31 150.44,-84.11 149.55,-84.90 148.45,-85.31 147.35,-85.71 146.02,-85.74 144.70,-85.77 143.09,-85.79 141.48,-85.81 139.72,-85.82 137.97,-85.83 136.22,-85.81 134.47,-85.78 132.69,-85.66 130.90,-85.53 129.35,-85.40 127.81,-85.27 126.49,-85.13 125.17,-85.00 123.55,-84.57 121.93,-84.14 120.90,-83.74 119.88,-83.34 118.73,-82.76 117.57,-82.18 116.33,-81.38 115.08,-80.58 113.84,-79.69 112.61,-78.80 111.49,-77.94 110.37,-77.08 109.35,-76.22 108.32,-75.36 107.37,-74.53 106.43,-73.69 105.54,-72.88 104.66,-72.07 103.19,-70.58 101.71,-69.09 100.95,-68.15 100.19,-67.20 99.41,-66.17 98.63,-65.14 97.88,-64.04 97.12,-62.94 96.39,-61.77 95.67,-60.60 94.99,-59.48 94.32,-58.36 93.48,-56.83 92.64,-55.31 92.51,-54.20 92.38,-53.09 92.57,-51.86 92.76,-50.62 92.98,-49.10 93.19,-47.58 93.23,-46.10 93.27,-44.61 93.20,-43.48 93.13,-42.35 93.19,-41.92 93.24,-41.48 93.20,-41.05 93.15,-40.61 93.00,-40.20 92.85,-39.79 92.61,-39.42 92.36,-39.06 92.04,-38.77 91.71,-38.47 91.33,-38.26 90.94,-38.05 90.52,-37.94 90.09,-37.83 89.66,-37.83 89.22,-37.82 88.79,-37.92 88.36,-38.02 87.97,-38.22 87.58,-38.42 87.25,-38.70 86.92,-38.99 86.66,-39.35 86.41,-39.71 86.25,-40.11 86.09,-40.52 85.96,-40.98 85.84,-41.44 85.31,-42.58 84.79,-43.72 84.18,-44.71 83.58,-45.71 82.85,-46.54 82.11,-47.38 81.05,-48.20 79.99,-49.02 78.80,-49.69 77.61,-50.37 76.54,-50.84 75.48,-51.31 74.41,-51.78 73.34,-52.25 72.15,-52.75 70.96,-53.25 69.91,-53.72 68.86,-54.19 67.80,-54.67 66.73,-55.14 65.56,-55.61 64.39,-56.08 63.02,-56.55 61.65,-57.02 60.24,-57.44 58.83,-57.86 57.41,-58.07 56.00,-58.27 54.30,-58.27 52.61,-58.26 50.96,-58.25 49.30,-58.24 47.83,-58.20 46.37,-58.15 44.92,-57.95 43.47,-57.74 42.21,-57.44 40.94,-57.14 39.66,-56.68 38.38,-56.22 36.91,-55.59 35.43,-54.96 33.89,-54.31 32.34,-53.66 30.80,-52.95 29.25,-52.23 27.69,-51.39 26.12,-50.54 24.90,-49.86 23.67,-49.17 22.47,-48.32 21.26,-47.47 19.89,-46.38 18.52,-45.29 17.65,-44.51 16.79,-43.72 15.87,-42.87 14.96,-42.03 14.11,-41.22 13.26,-40.41 12.51,-39.63 11.75,-38.85 10.57,-37.43 9.40,-36.01 8.66,-34.77 7.92,-33.53 7.38,-32.11 6.83,-30.68 6.32,-29.05 5.80,-27.41 5.34,-25.84 4.89,-24.27 4.50,-22.35 4.11,-20.44 3.93,-19.38 3.76,-18.33 3.62,-17.16 3.48,-16.00 3.28,-13.78 3.08,-11.55 3.01,-9.71 2.94,-7.86 2.89,-6.43 2.83,-4.99 2.76,-3.50 2.69,-2.01 2.66,-1.00 2.62,0 2.59,0.31 2.55,0.62 2.44,0.92 2.32,1.22 2.14,1.48 1.96,1.74 1.73,1.95 1.49,2.16 1.21,2.31 0.93,2.45 0.62,2.53 0.31,2.61 -0.00,2.61 -0.31,2.61 -0.62,2.53 -0.93,2.45 -1.21,2.31 -1.49,2.16 -1.73,1.95 -1.96,1.74 -2.14,1.48 -2.32,1.22 -2.44,0.92 -2.55,0.62 -2.59,0.31 -2.62,-0.00 -2.62,-0.00 L -2.62,0 Z"></path></g><g transform="translate(1671.6236903804438 580.7366707549756) rotate(0 27.023169284830146 59.1937505126629)" stroke="none"><path fill="#000000" d="M -2.28,-0.55 Q -2.28,-0.55 -1.92,-2.05 -1.55,-3.54 -0.94,-5.03 -0.33,-6.51 0.35,-7.85 1.05,-9.18 1.89,-10.50 2.74,-11.82 3.66,-13.11 4.59,-14.40 5.48,-15.62 6.37,-16.84 7.30,-18.03 8.24,-19.22 9.18,-20.36 10.12,-21.49 11.00,-22.53 11.89,-23.56 12.73,-24.53 13.57,-25.50 14.41,-26.44 15.24,-27.39 16.10,-28.30 16.95,-29.21 17.88,-30.11 18.81,-31.01 19.84,-31.89 20.87,-32.76 21.95,-33.57 23.03,-34.38 24.14,-35.12 25.24,-35.86 26.42,-36.56 27.59,-37.26 28.88,-37.91 30.18,-38.56 31.60,-39.12 33.03,-39.68 34.83,-40.15 36.63,-40.61 38.73,-40.91 40.82,-41.21 42.95,-41.33 45.08,-41.45 47.15,-41.47 49.23,-41.49 51.22,-41.46 53.21,-41.44 55.21,-41.27 57.21,-41.10 59.13,-40.71 61.05,-40.31 62.79,-39.77 64.53,-39.22 66.06,-38.62 67.60,-38.02 68.93,-37.43 70.26,-36.83 71.42,-36.31 72.57,-35.78 73.58,-35.29 74.60,-34.79 76.22,-33.92 77.83,-33.05 79.17,-32.22 80.50,-31.39 81.74,-30.39 82.98,-29.39 84.04,-28.30 85.09,-27.20 85.99,-25.98 86.89,-24.76 87.67,-23.53 88.45,-22.30 89.16,-20.81 89.87,-19.32 90.46,-17.69 91.04,-16.06 91.53,-14.32 92.02,-12.59 92.21,-10.91 92.41,-9.23 92.52,-7.74 92.63,-6.26 92.66,-4.80 92.69,-3.34 92.70,-1.80 92.71,-0.27 92.53,1.58 92.35,3.43 91.88,5.25 91.40,7.08 90.91,8.66 90.43,10.24 90.00,11.65 89.58,13.06 88.97,14.52 88.36,15.97 87.72,17.18 87.09,18.39 86.43,19.44 85.78,20.49 84.85,21.69 83.92,22.89 83.64,23.17 83.37,23.45 83.03,23.70 82.69,23.95 82.30,24.11 81.91,24.27 81.50,24.33 81.08,24.40 80.66,24.36 80.24,24.32 79.84,24.18 79.45,24.04 79.09,23.81 78.74,23.58 78.45,23.28 78.16,22.97 77.96,22.60 77.75,22.24 77.64,21.83 77.53,21.43 77.51,21.00 77.50,20.58 77.59,20.17 77.68,19.76 77.86,19.38 78.05,19.01 78.32,18.68 78.59,18.36 79.67,17.39 80.74,16.41 81.68,15.66 82.61,14.91 83.60,14.32 84.59,13.73 86.02,13.39 87.45,13.04 89.07,12.98 90.68,12.92 92.79,13.12 94.90,13.32 96.08,13.68 97.26,14.04 98.30,14.47 99.35,14.91 101.10,15.78 102.85,16.65 104.32,17.54 105.78,18.44 107.06,19.25 108.33,20.07 109.68,21.11 111.02,22.15 112.32,23.42 113.62,24.69 114.86,26.16 116.09,27.64 117.11,29.24 118.12,30.84 118.96,32.66 119.79,34.48 120.48,36.39 121.16,38.30 121.71,40.42 122.26,42.53 122.46,43.74 122.65,44.96 122.78,46.22 122.92,47.49 123.04,48.72 123.16,49.94 123.24,51.19 123.32,52.44 123.36,53.65 123.39,54.85 123.41,55.92 123.43,56.99 123.45,59.03 123.47,61.06 123.49,62.92 123.50,64.78 123.54,66.25 123.57,67.72 123.52,69.11 123.47,70.50 123.13,71.82 122.79,73.13 122.24,74.21 121.69,75.28 120.86,76.27 120.03,77.25 119.09,77.98 118.14,78.70 116.86,79.47 115.58,80.23 114.12,80.87 112.67,81.50 111.54,81.92 110.41,82.35 109.09,82.82 107.78,83.30 106.20,83.80 104.62,84.31 103.01,84.80 101.39,85.29 99.71,85.78 98.04,86.26 96.40,86.62 94.77,86.97 93.14,87.14 91.51,87.31 90.01,87.34 88.52,87.37 87.14,87.38 85.77,87.39 84.45,87.34 83.14,87.29 81.88,86.97 80.61,86.64 79.43,86.13 78.25,85.62 77.20,85.29 76.15,84.97 75.12,84.34 74.09,83.72 73.58,82.18 73.07,80.63 73.83,79.27 74.60,77.91 75.57,77.46 76.55,77.01 77.92,77.53 79.29,78.06 80.29,78.90 81.29,79.75 82.20,80.95 83.11,82.16 83.44,83.32 83.76,84.48 83.80,85.76 83.85,87.04 83.85,88.41 83.85,89.78 83.83,90.86 83.82,91.93 83.47,93.54 83.11,95.15 82.56,96.47 82.01,97.79 81.36,98.94 80.70,100.08 79.99,101.12 79.27,102.17 78.35,103.32 77.43,104.47 76.50,105.43 75.58,106.38 74.39,107.36 73.21,108.34 71.67,109.23 70.13,110.12 68.54,110.80 66.95,111.47 65.27,112.08 63.58,112.68 61.53,113.36 59.47,114.03 58.33,114.38 57.19,114.72 56.03,115.07 54.86,115.42 53.69,115.76 52.52,116.10 51.42,116.41 50.32,116.72 48.37,117.27 46.42,117.82 44.51,118.32 42.59,118.82 40.63,119.10 38.66,119.39 36.86,119.54 35.07,119.70 33.16,119.75 31.26,119.80 29.45,119.77 27.63,119.74 25.61,119.32 23.60,118.89 21.96,118.30 20.32,117.71 18.81,117.06 17.30,116.42 16.06,115.76 14.83,115.10 13.62,114.29 12.41,113.47 11.59,112.79 10.77,112.11 10.03,111.12 9.29,110.12 9.29,108.23 9.30,106.34 10.53,105.37 11.76,104.40 12.87,104.36 13.97,104.32 15.47,105.57 16.97,106.81 18.02,108.18 19.06,109.55 19.75,110.73 20.45,111.92 20.93,113.29 21.41,114.66 21.53,115.94 21.64,117.22 21.63,118.46 21.62,119.69 21.04,121.46 20.46,123.24 19.37,124.59 18.27,125.94 16.76,127.13 15.26,128.32 14.26,129.00 13.25,129.68 12.16,130.43 11.07,131.19 9.86,132.05 8.64,132.90 7.24,133.86 5.84,134.82 4.23,135.89 2.62,136.96 1.00,138.02 -0.62,139.07 -2.14,140.02 -3.65,140.96 -5.05,141.84 -6.45,142.72 -7.69,143.56 -8.94,144.40 -10.12,145.20 -11.29,146.00 -12.44,146.80 -13.58,147.60 -14.91,148.46 -16.24,149.32 -17.91,150.22 -19.58,151.12 -21.44,152.01 -23.29,152.91 -25.08,153.73 -26.87,154.55 -28.62,155.28 -30.37,156.00 -32.03,156.62 -33.68,157.24 -35.01,157.74 -36.34,158.24 -37.41,158.65 -38.48,159.06 -40.51,159.64 -42.54,160.23 -43.70,160.36 -44.85,160.49 -46.02,160.55 -47.20,160.61 -48.42,160.61 -49.64,160.61 -50.93,160.45 -52.22,160.29 -53.42,159.93 -54.62,159.58 -55.59,159.11 -56.56,158.64 -57.88,157.72 -59.19,156.80 -59.97,156.02 -60.75,155.25 -61.53,154.45 -62.31,153.64 -63.12,152.84 -63.93,152.05 -64.65,151.18 -65.36,150.32 -66.14,149.29 -66.91,148.26 -64.94,146.32 -62.97,144.39 -63.10,144.92 -63.24,145.46 -63.54,145.93 -63.84,146.40 -64.27,146.74 -64.71,147.09 -65.23,147.28 -65.75,147.47 -66.30,147.48 -66.86,147.50 -67.39,147.33 -67.92,147.17 -68.37,146.84 -68.82,146.52 -69.14,146.07 -69.46,145.62 -69.62,145.09 -69.79,144.55 -69.77,144.00 -69.75,143.45 -69.56,142.92 -69.37,142.40 -69.02,141.97 -68.67,141.54 -68.20,141.24 -67.73,140.95 -67.20,140.81 -66.66,140.68 -66.10,140.73 -65.55,140.77 -65.04,140.99 -64.53,141.21 -64.12,141.59 -63.71,141.96 -63.44,142.44 -63.17,142.93 -63.06,143.47 -62.96,144.02 -63.04,144.57 -63.11,145.11 -63.36,145.61 -63.61,146.11 -64.00,146.50 -64.39,146.89 -64.89,147.14 -65.39,147.38 -65.94,147.45 -66.49,147.53 -67.03,147.42 -67.58,147.32 -68.06,147.04 -68.54,146.77 -68.91,146.35 -69.28,145.94 -69.50,145.43 -69.72,144.92 -69.76,144.37 -69.80,143.81 -69.80,143.81 -69.80,143.81 -65.64,143.93 -61.48,144.06 -60.92,144.99 -60.35,145.92 -59.70,146.85 -59.05,147.78 -58.31,148.65 -57.57,149.53 -56.85,150.45 -56.13,151.38 -55.44,152.21 -54.76,153.04 -53.81,153.73 -52.85,154.43 -51.19,154.90 -49.52,155.37 -48.43,155.42 -47.33,155.46 -45.35,155.46 -43.36,155.45 -41.58,155.16 -39.79,154.88 -38.71,154.62 -37.63,154.35 -36.33,153.98 -35.02,153.60 -33.44,153.03 -31.86,152.46 -30.22,151.76 -28.58,151.05 -26.90,150.18 -25.22,149.30 -23.52,148.28 -21.82,147.27 -20.32,146.33 -18.82,145.39 -17.53,144.54 -16.25,143.68 -15.06,142.89 -13.88,142.11 -12.69,141.34 -11.50,140.57 -10.22,139.72 -8.94,138.88 -7.58,137.96 -6.21,137.05 -4.85,136.11 -3.48,135.17 -2.04,133.98 -0.60,132.79 0.82,131.49 2.26,130.20 3.51,129.10 4.76,128.01 5.91,126.99 7.07,125.97 8.14,125.06 9.22,124.15 10.76,122.93 12.30,121.72 13.41,120.53 14.51,119.34 14.52,118.03 14.53,116.71 14.17,115.57 13.82,114.43 13.23,113.54 12.65,112.66 12.65,111.54 12.64,110.43 14.18,108.89 15.72,107.36 16.71,108.18 17.69,109.00 18.88,109.75 20.06,110.51 21.33,111.08 22.60,111.65 24.02,112.19 25.44,112.73 26.69,113.05 27.94,113.36 29.56,113.40 31.18,113.45 32.88,113.42 34.59,113.38 36.29,113.26 37.99,113.13 39.59,112.93 41.19,112.73 42.95,112.28 44.71,111.83 46.63,111.27 48.55,110.71 49.59,110.39 50.62,110.07 51.72,109.70 52.83,109.32 53.96,108.90 55.10,108.48 56.17,108.09 57.24,107.70 58.25,107.31 59.26,106.92 61.06,106.21 62.85,105.51 64.22,104.96 65.59,104.42 66.73,103.84 67.87,103.25 68.77,102.61 69.68,101.96 70.80,100.86 71.92,99.76 72.58,98.92 73.25,98.08 73.85,97.19 74.45,96.31 75.10,95.10 75.74,93.89 76.09,92.82 76.43,91.74 76.44,90.31 76.45,88.87 76.44,87.59 76.44,86.31 75.87,85.18 75.29,84.05 76.59,83.67 77.89,83.30 78.61,82.01 79.33,80.72 79.12,79.55 78.91,78.39 80.04,78.80 81.18,79.22 82.28,79.75 83.37,80.29 84.56,80.42 85.75,80.55 87.10,80.55 88.45,80.55 89.78,80.53 91.11,80.52 92.27,80.41 93.44,80.31 94.80,80.01 96.17,79.72 97.74,79.23 99.32,78.75 100.91,78.23 102.51,77.70 103.95,77.21 105.39,76.72 106.69,76.24 107.98,75.77 109.10,75.35 110.23,74.94 111.36,74.49 112.48,74.04 113.45,73.52 114.42,72.99 115.41,72.14 116.40,71.30 116.83,70.13 117.26,68.96 117.30,67.66 117.34,66.35 117.36,64.67 117.39,62.99 117.40,61.05 117.40,59.11 117.38,57.09 117.36,55.07 117.32,54.00 117.27,52.93 117.16,51.79 117.05,50.65 116.89,49.47 116.73,48.29 116.37,46.17 116.01,44.05 115.50,42.25 114.99,40.45 114.36,38.77 113.73,37.09 113.04,35.61 112.34,34.14 111.61,32.96 110.87,31.78 109.88,30.61 108.89,29.43 107.80,28.39 106.72,27.34 105.66,26.51 104.59,25.67 103.39,24.89 102.18,24.11 100.99,23.38 99.81,22.64 98.31,21.93 96.81,21.22 95.36,20.71 93.91,20.21 92.37,20.12 90.82,20.03 89.12,20.13 87.42,20.22 86.48,20.90 85.55,21.58 84.46,22.51 83.37,23.45 83.03,23.70 82.69,23.95 82.30,24.11 81.91,24.27 81.50,24.33 81.08,24.40 80.66,24.36 80.24,24.32 79.84,24.18 79.45,24.04 79.09,23.81 78.74,23.58 78.45,23.28 78.16,22.97 77.96,22.60 77.75,22.24 77.64,21.83 77.53,21.43 77.51,21.01 77.50,20.58 77.59,20.17 77.68,19.76 77.86,19.38 78.05,19.01 78.32,18.68 78.59,18.36 78.64,18.31 78.70,18.25 79.42,17.44 80.13,16.62 80.93,15.39 81.72,14.16 82.25,13.11 82.78,12.05 83.20,10.91 83.63,9.78 84.09,8.26 84.54,6.75 84.99,5.24 85.43,3.74 85.71,2.48 85.98,1.22 86.01,-0.31 86.04,-1.84 86.05,-3.27 86.05,-4.71 86.04,-5.96 86.02,-7.22 85.91,-8.62 85.80,-10.02 85.62,-11.24 85.44,-12.45 84.96,-13.99 84.47,-15.53 84.00,-16.82 83.52,-18.11 82.99,-19.20 82.46,-20.29 81.80,-21.38 81.15,-22.46 80.49,-23.41 79.84,-24.35 79.05,-25.27 78.26,-26.19 77.26,-27.05 76.25,-27.92 75.06,-28.85 73.86,-29.78 72.22,-30.86 70.59,-31.93 69.52,-32.55 68.46,-33.17 67.28,-33.81 66.10,-34.46 64.73,-35.09 63.36,-35.71 61.83,-36.25 60.31,-36.79 58.63,-37.16 56.94,-37.52 55.09,-37.63 53.23,-37.75 51.31,-37.70 49.39,-37.65 47.44,-37.50 45.48,-37.35 43.58,-37.07 41.68,-36.79 39.86,-36.32 38.03,-35.85 36.50,-35.33 34.96,-34.82 33.76,-34.33 32.56,-33.85 31.43,-33.27 30.30,-32.69 29.23,-32.06 28.17,-31.44 27.17,-30.79 26.17,-30.14 25.20,-29.44 24.24,-28.73 23.31,-27.98 22.39,-27.23 21.52,-26.42 20.64,-25.62 19.81,-24.80 18.98,-23.97 18.13,-23.07 17.27,-22.17 16.41,-21.25 15.56,-20.33 14.68,-19.37 13.81,-18.41 12.90,-17.33 11.99,-16.25 11.11,-15.15 10.23,-14.04 9.35,-12.83 8.48,-11.62 7.63,-10.42 6.78,-9.22 6.03,-8.07 5.28,-6.92 4.65,-5.77 4.02,-4.61 3.51,-3.52 3.00,-2.43 2.64,-0.94 2.28,0.55 2.18,0.81 2.09,1.08 1.92,1.31 1.76,1.55 1.55,1.74 1.34,1.93 1.09,2.06 0.84,2.19 0.56,2.26 0.29,2.33 0.01,2.33 -0.27,2.33 -0.54,2.27 -0.82,2.20 -1.07,2.07 -1.32,1.94 -1.54,1.75 -1.75,1.56 -1.91,1.33 -2.08,1.10 -2.18,0.83 -2.28,0.57 -2.31,0.29 -2.35,0.01 -2.32,-0.27 -2.28,-0.55 -2.28,-0.55 L -2.28,-0.55 Z"></path></g><g transform="translate(1606.5114918348397 725.6270550561014) rotate(0 -82.60837884264924 41.402320324917355)" stroke="none"><path fill="#000000" d="M 2.14,0 Q 2.14,0 2.10,1.84 2.06,3.68 2.05,5.41 2.05,7.13 1.99,8.99 1.94,10.85 1.74,12.77 1.55,14.69 1.20,16.55 0.84,18.41 0.41,20.14 -0.02,21.86 -0.52,23.44 -1.01,25.01 -1.49,26.43 -1.96,27.84 -2.48,29.19 -3.00,30.53 -3.58,31.76 -4.15,32.99 -4.74,34.04 -5.32,35.09 -6.00,36.03 -6.68,36.98 -7.46,37.79 -8.25,38.60 -9.22,39.28 -10.19,39.95 -11.29,40.48 -12.38,41.01 -13.52,41.42 -14.65,41.83 -15.91,42.17 -17.16,42.51 -18.63,42.81 -20.09,43.10 -21.69,43.37 -23.28,43.63 -24.95,43.89 -26.62,44.14 -28.38,44.39 -30.15,44.64 -31.92,44.90 -33.68,45.16 -35.31,45.45 -36.93,45.73 -38.41,45.98 -39.90,46.24 -41.24,46.40 -42.58,46.56 -43.80,46.66 -45.02,46.75 -46.13,46.81 -47.23,46.88 -49.42,46.87 -51.61,46.87 -52.82,46.63 -54.04,46.39 -55.17,46.03 -56.29,45.68 -57.32,45.25 -58.35,44.83 -60.05,43.81 -61.75,42.80 -62.99,41.76 -64.24,40.73 -65.15,39.58 -66.06,38.42 -66.81,37.14 -67.56,35.85 -67.87,34.65 -68.18,33.44 -67.53,31.88 -66.87,30.32 -65.62,29.86 -64.37,29.41 -63.31,29.78 -62.24,30.15 -61.45,31.54 -60.65,32.93 -60.42,34.19 -60.19,35.45 -60.13,36.55 -60.08,37.64 -60.05,38.89 -60.02,40.14 -60.00,41.25 -59.98,42.36 -59.96,43.52 -59.95,44.67 -60.27,46.16 -60.59,47.65 -61.36,49.04 -62.13,50.43 -63.18,51.63 -64.22,52.83 -65.54,54.04 -66.86,55.24 -68.61,56.62 -70.35,58.00 -71.48,58.81 -72.60,59.62 -73.91,60.46 -75.21,61.30 -76.58,62.10 -77.94,62.89 -79.34,63.61 -80.74,64.33 -82.21,64.96 -83.68,65.59 -85.23,66.10 -86.79,66.61 -88.29,66.99 -89.79,67.38 -91.19,67.68 -92.59,67.98 -93.93,68.20 -95.27,68.43 -96.47,68.58 -97.67,68.73 -98.75,68.82 -99.83,68.91 -101.62,69.01 -103.41,69.10 -104.89,69.15 -106.38,69.19 -108.19,68.83 -109.99,68.47 -111.53,67.82 -113.06,67.18 -114.37,66.32 -115.69,65.47 -116.83,64.20 -117.97,62.92 -118.73,61.66 -119.49,60.39 -120.05,59.24 -120.61,58.10 -121.07,56.91 -121.53,55.72 -121.99,54.60 -122.46,53.48 -122.85,52.29 -123.25,51.10 -123.32,50.72 -123.39,50.35 -123.40,49.93 -123.40,49.50 -123.31,49.09 -123.21,48.68 -123.02,48.30 -122.83,47.92 -122.56,47.60 -122.28,47.28 -121.94,47.03 -121.59,46.79 -121.20,46.63 -120.81,46.47 -120.39,46.42 -119.97,46.36 -119.55,46.40 -119.13,46.45 -118.73,46.59 -118.33,46.73 -117.98,46.97 -117.62,47.20 -117.34,47.52 -117.05,47.83 -116.85,48.20 -116.65,48.57 -116.54,48.98 -116.43,49.39 -116.40,50.68 -116.37,51.98 -116.35,53.15 -116.34,54.33 -116.33,55.68 -116.32,57.02 -116.32,58.58 -116.31,60.13 -116.33,61.68 -116.35,63.22 -116.61,64.54 -116.88,65.86 -117.39,66.98 -117.90,68.10 -118.79,69.40 -119.69,70.70 -120.65,71.77 -121.60,72.84 -122.60,73.93 -123.60,75.02 -124.33,75.84 -125.05,76.65 -126.01,77.62 -126.97,78.59 -128.16,79.56 -129.36,80.53 -130.89,81.37 -132.43,82.21 -134.04,82.80 -135.66,83.39 -137.27,83.89 -138.88,84.40 -140.42,84.85 -141.96,85.30 -143.66,85.61 -145.36,85.92 -146.91,86.06 -148.45,86.20 -149.88,86.23 -151.30,86.25 -152.67,86.26 -154.03,86.26 -155.72,86.05 -157.40,85.83 -158.97,85.25 -160.54,84.67 -161.76,84.09 -162.99,83.52 -164.16,82.81 -165.33,82.10 -166.36,80.73 -167.38,79.36 -167.77,78.20 -168.15,77.05 -168.45,74.75 -168.76,72.45 -168.68,71.88 -168.60,71.31 -168.35,70.79 -168.09,70.28 -167.68,69.87 -167.28,69.47 -166.76,69.21 -166.25,68.96 -165.68,68.88 -165.11,68.81 -164.55,68.91 -163.98,69.02 -163.48,69.31 -162.98,69.59 -162.60,70.02 -162.22,70.44 -161.99,70.97 -161.76,71.50 -161.72,72.07 -161.67,72.64 -161.81,73.20 -161.95,73.76 -162.26,74.24 -162.57,74.73 -163.02,75.09 -163.47,75.44 -164.00,75.64 -164.54,75.84 -165.12,75.85 -165.69,75.87 -166.24,75.70 -166.79,75.53 -167.26,75.20 -167.72,74.86 -168.06,74.39 -168.39,73.93 -168.56,73.38 -168.73,72.83 -168.71,72.26 -168.69,71.68 -168.50,71.14 -168.30,70.60 -167.94,70.16 -167.58,69.71 -167.09,69.40 -166.61,69.09 -166.05,68.95 -165.49,68.82 -164.92,68.86 -164.35,68.91 -163.82,69.14 -163.30,69.36 -162.87,69.75 -162.44,70.13 -162.16,70.63 -161.88,71.13 -161.77,71.70 -161.66,72.26 -161.66,72.26 -161.66,72.26 -161.23,74.52 -160.80,76.78 -159.84,77.29 -158.89,77.79 -157.86,78.26 -156.84,78.73 -155.44,79.03 -154.04,79.33 -152.71,79.33 -151.37,79.33 -150.10,79.31 -148.83,79.29 -147.64,79.19 -146.44,79.09 -145.17,78.85 -143.89,78.61 -142.45,78.17 -141.01,77.72 -139.52,77.21 -138.03,76.70 -136.78,76.22 -135.52,75.74 -134.20,74.93 -132.88,74.13 -132.08,73.37 -131.28,72.61 -130.53,71.78 -129.78,70.96 -129.07,70.15 -128.36,69.35 -127.38,68.29 -126.40,67.24 -125.69,66.44 -124.98,65.65 -124.33,64.55 -123.69,63.44 -123.61,62.30 -123.53,61.16 -123.53,59.59 -123.53,58.02 -123.52,56.62 -123.51,55.22 -123.50,53.96 -123.49,52.71 -123.44,51.53 -123.39,50.35 -123.40,49.93 -123.40,49.50 -123.31,49.09 -123.21,48.68 -123.02,48.30 -122.83,47.92 -122.56,47.60 -122.28,47.28 -121.94,47.03 -121.59,46.79 -121.20,46.63 -120.81,46.47 -120.39,46.42 -119.97,46.36 -119.55,46.40 -119.13,46.45 -118.73,46.59 -118.33,46.73 -117.98,46.97 -117.62,47.20 -117.34,47.52 -117.05,47.83 -116.85,48.20 -116.65,48.57 -116.54,48.98 -116.43,49.39 -116.21,50.28 -115.98,51.17 -115.55,52.39 -115.11,53.60 -114.61,54.97 -114.10,56.34 -113.40,57.72 -112.70,59.11 -111.89,60.07 -111.07,61.02 -110.15,61.58 -109.23,62.15 -108.22,62.59 -107.21,63.03 -106.08,63.18 -104.95,63.33 -103.41,63.38 -101.87,63.42 -100.07,63.40 -98.26,63.38 -97.19,63.28 -96.12,63.18 -94.93,62.99 -93.73,62.80 -92.45,62.52 -91.18,62.23 -89.88,61.86 -88.59,61.49 -87.30,61.00 -86.01,60.51 -84.77,59.89 -83.54,59.28 -82.36,58.57 -81.17,57.86 -80.00,57.03 -78.83,56.20 -77.74,55.33 -76.65,54.47 -75.68,53.64 -74.72,52.82 -73.85,52.03 -72.98,51.24 -71.71,50.11 -70.44,48.97 -69.28,47.72 -68.12,46.48 -67.61,45.16 -67.09,43.84 -67.07,42.74 -67.06,41.63 -67.04,40.50 -67.02,39.37 -67.00,38.16 -66.99,36.95 -67.07,35.83 -67.14,34.72 -66.06,35.10 -64.97,35.49 -63.11,34.90 -61.25,34.32 -60.64,35.38 -60.02,36.44 -59.21,37.25 -58.39,38.07 -57.23,38.89 -56.07,39.72 -54.43,40.42 -52.79,41.12 -51.09,41.46 -49.38,41.80 -47.30,41.85 -45.22,41.90 -44.11,41.90 -43.01,41.89 -41.81,41.82 -40.61,41.76 -39.18,41.55 -37.75,41.34 -36.11,41.02 -34.47,40.69 -32.73,40.33 -30.98,39.97 -29.26,39.60 -27.53,39.23 -25.90,38.87 -24.28,38.52 -22.76,38.17 -21.24,37.83 -19.90,37.52 -18.57,37.20 -17.49,36.93 -16.41,36.65 -14.69,36.05 -12.97,35.46 -11.75,34.69 -10.54,33.91 -9.36,32.41 -8.18,30.90 -7.59,29.87 -7.00,28.84 -6.45,27.63 -5.89,26.41 -5.36,25.07 -4.82,23.73 -4.31,22.30 -3.79,20.88 -3.37,19.29 -2.94,17.70 -2.63,16.02 -2.31,14.34 -2.17,12.57 -2.04,10.80 -2.04,8.97 -2.05,7.13 -2.05,5.41 -2.06,3.68 -2.10,1.84 -2.14,0 -2.11,-0.25 -2.08,-0.51 -1.99,-0.75 -1.89,-0.99 -1.75,-1.20 -1.60,-1.42 -1.41,-1.59 -1.21,-1.76 -0.98,-1.88 -0.76,-2.00 -0.50,-2.06 -0.25,-2.12 0.00,-2.12 0.25,-2.12 0.50,-2.06 0.76,-2.00 0.98,-1.88 1.21,-1.76 1.41,-1.59 1.60,-1.42 1.75,-1.20 1.89,-0.99 1.99,-0.75 2.08,-0.51 2.11,-0.25 2.14,0.00 2.14,0.00 L 2.14,0 Z"></path></g><g transform="translate(1439.7375651750208 798.7030701895624) rotate(0 -30.30906772331548 -45.96094684636381)" stroke="none"><path fill="#000000" d="M 1.13,2.40 Q 1.13,2.40 0.06,2.92 -1.01,3.44 -2.83,4.52 -4.65,5.60 -5.62,6.08 -6.59,6.56 -8.25,7.24 -9.91,7.91 -11.43,8.25 -12.95,8.59 -14.13,8.68 -15.31,8.77 -16.64,8.84 -17.97,8.90 -19.05,8.93 -20.14,8.96 -21.92,8.95 -23.70,8.94 -24.98,8.83 -26.25,8.72 -27.70,8.46 -29.15,8.21 -30.55,7.90 -31.95,7.59 -33.26,7.23 -34.56,6.88 -35.74,6.44 -36.91,6.00 -37.88,5.53 -38.85,5.06 -40.35,3.79 -41.85,2.51 -42.68,1.21 -43.51,-0.09 -44.17,-1.40 -44.84,-2.71 -45.50,-4.30 -46.16,-5.88 -46.54,-7.26 -46.93,-8.64 -47.19,-10.09 -47.45,-11.55 -47.51,-13.28 -47.57,-15.01 -47.56,-16.89 -47.55,-18.77 -47.50,-20.50 -47.45,-22.24 -47.14,-23.78 -46.83,-25.33 -46.39,-26.43 -45.95,-27.53 -45.35,-28.55 -44.75,-29.58 -43.68,-30.73 -42.61,-31.89 -42.12,-32.21 -41.63,-32.52 -41.24,-32.68 -40.84,-32.84 -40.42,-32.90 -39.99,-32.96 -39.57,-32.92 -39.14,-32.88 -38.74,-32.73 -38.34,-32.59 -37.98,-32.35 -37.63,-32.12 -37.34,-31.80 -37.05,-31.49 -36.84,-31.12 -36.64,-30.74 -36.53,-30.33 -36.42,-29.92 -36.41,-29.49 -36.40,-29.06 -36.49,-28.64 -36.59,-28.23 -36.78,-27.85 -36.97,-27.46 -37.25,-27.14 -37.52,-26.81 -37.87,-26.56 -38.22,-26.31 -39.39,-26.12 -40.56,-25.93 -41.66,-25.49 -42.75,-25.06 -43.83,-24.80 -44.91,-24.53 -45.97,-24.44 -47.03,-24.35 -48.39,-24.39 -49.75,-24.43 -51.46,-25.14 -53.17,-25.85 -54.64,-26.92 -56.12,-27.99 -57.48,-29.40 -58.84,-30.80 -59.83,-32.20 -60.82,-33.59 -61.47,-35.09 -62.13,-36.58 -62.53,-37.97 -62.93,-39.36 -63.20,-40.74 -63.46,-42.12 -63.64,-43.60 -63.82,-45.08 -63.93,-46.75 -64.04,-48.42 -64.06,-49.90 -64.08,-51.37 -64.08,-52.75 -64.08,-54.13 -64.09,-55.39 -64.09,-56.66 -64.10,-57.87 -64.10,-59.08 -64.11,-60.34 -64.11,-61.59 -64.11,-62.92 -64.11,-64.24 -63.99,-65.81 -63.88,-67.38 -63.46,-69.25 -63.04,-71.12 -62.44,-73.12 -61.84,-75.12 -61.45,-76.17 -61.05,-77.22 -60.22,-79.11 -59.40,-81.00 -58.54,-82.56 -57.69,-84.12 -56.76,-85.52 -55.83,-86.92 -54.61,-88.34 -53.38,-89.76 -52.58,-90.51 -51.78,-91.26 -50.92,-92.00 -50.07,-92.74 -48.60,-94.03 -47.13,-95.31 -45.92,-96.30 -44.70,-97.29 -43.73,-98.00 -42.76,-98.71 -41.80,-99.16 -40.83,-99.61 -39.62,-100.00 -38.40,-100.39 -37.13,-100.62 -35.85,-100.85 -34.53,-101.00 -33.21,-101.14 -31.97,-101.17 -30.73,-101.20 -29.58,-101.22 -28.43,-101.24 -27.37,-101.16 -26.30,-101.08 -25.26,-100.79 -24.22,-100.51 -23.11,-100.24 -21.99,-99.98 -20.06,-99.22 -18.12,-98.46 -17.54,-98.31 -16.95,-98.16 -16.44,-97.83 -15.93,-97.50 -15.55,-97.03 -15.17,-96.55 -14.96,-95.98 -14.76,-95.41 -14.74,-94.80 -14.73,-94.19 -14.91,-93.62 -15.09,-93.04 -15.45,-92.54 -15.81,-92.05 -16.30,-91.70 -16.80,-91.35 -17.38,-91.17 -17.96,-91.00 -18.57,-91.02 -19.17,-91.04 -19.74,-91.25 -20.31,-91.46 -20.78,-91.85 -21.26,-92.23 -21.58,-92.74 -21.90,-93.26 -22.05,-93.85 -22.19,-94.44 -22.14,-95.04 -22.09,-95.65 -21.84,-96.20 -21.60,-96.76 -21.19,-97.21 -20.78,-97.66 -20.25,-97.96 -19.72,-98.25 -19.13,-98.36 -18.53,-98.47 -17.93,-98.39 -17.33,-98.30 -16.78,-98.03 -16.24,-97.76 -15.81,-97.33 -15.39,-96.89 -15.12,-96.35 -14.85,-95.80 -14.77,-95.20 -14.70,-94.60 -14.81,-94.00 -14.93,-93.41 -15.23,-92.88 -15.53,-92.35 -15.99,-91.95 -16.44,-91.55 -17.00,-91.31 -17.56,-91.07 -18.17,-91.03 -18.77,-90.98 -18.77,-90.98 -18.77,-90.98 -21.22,-91.80 -23.67,-92.61 -24.94,-93.00 -26.20,-93.38 -27.32,-93.68 -28.43,-93.97 -29.58,-93.99 -30.73,-94.01 -31.87,-94.03 -33.01,-94.04 -34.22,-93.97 -35.43,-93.89 -36.54,-93.71 -37.65,-93.53 -38.73,-93.17 -39.81,-92.81 -40.78,-92.09 -41.76,-91.37 -43.01,-90.32 -44.26,-89.28 -45.75,-87.91 -47.24,-86.53 -48.40,-85.34 -49.56,-84.15 -50.40,-83.07 -51.24,-81.99 -51.98,-80.79 -52.72,-79.59 -53.42,-78.15 -54.13,-76.71 -54.76,-74.95 -55.40,-73.19 -55.87,-71.34 -56.35,-69.48 -56.65,-68.06 -56.94,-66.64 -57.03,-65.44 -57.12,-64.24 -57.12,-62.92 -57.12,-61.59 -57.12,-60.34 -57.12,-59.08 -57.13,-57.87 -57.13,-56.66 -57.14,-55.40 -57.14,-54.14 -57.14,-52.78 -57.13,-51.43 -57.11,-50.08 -57.09,-48.73 -56.98,-47.36 -56.87,-45.98 -56.70,-44.62 -56.52,-43.25 -56.32,-42.17 -56.11,-41.08 -55.83,-40.05 -55.54,-39.03 -54.94,-37.76 -54.34,-36.48 -53.53,-35.52 -52.72,-34.56 -51.67,-33.71 -50.63,-32.85 -49.60,-32.22 -48.57,-31.59 -47.43,-31.60 -46.28,-31.61 -45.24,-31.86 -44.20,-32.12 -42.92,-32.32 -41.63,-32.52 -41.24,-32.68 -40.84,-32.84 -40.42,-32.90 -40.00,-32.96 -39.57,-32.92 -39.15,-32.88 -38.74,-32.73 -38.34,-32.59 -37.98,-32.35 -37.63,-32.12 -37.34,-31.80 -37.05,-31.49 -36.84,-31.12 -36.64,-30.74 -36.53,-30.33 -36.42,-29.92 -36.41,-29.49 -36.40,-29.06 -36.49,-28.64 -36.59,-28.23 -36.78,-27.85 -36.97,-27.46 -37.25,-27.14 -37.52,-26.81 -37.87,-26.56 -38.22,-26.31 -38.35,-26.28 -38.49,-26.24 -39.29,-25.16 -40.09,-24.07 -40.44,-22.94 -40.79,-21.82 -40.83,-20.30 -40.87,-18.79 -40.84,-16.96 -40.81,-15.14 -40.77,-13.78 -40.73,-12.43 -40.56,-11.34 -40.39,-10.24 -39.98,-8.72 -39.58,-7.21 -39.09,-5.92 -38.59,-4.64 -38.06,-3.41 -37.53,-2.19 -36.81,-1.22 -36.09,-0.26 -34.58,0.42 -33.07,1.12 -31.95,1.39 -30.84,1.66 -29.54,1.86 -28.24,2.06 -25.97,2.24 -23.70,2.42 -21.92,2.42 -20.14,2.41 -19.06,2.44 -17.98,2.46 -16.72,2.51 -15.46,2.56 -14.13,2.57 -12.81,2.57 -11.62,2.28 -10.43,1.99 -8.89,1.39 -7.34,0.79 -6.39,0.28 -5.44,-0.23 -4.37,-0.81 -3.31,-1.39 -2.22,-1.89 -1.13,-2.40 -0.83,-2.50 -0.53,-2.60 -0.21,-2.62 0.10,-2.65 0.42,-2.60 0.73,-2.55 1.03,-2.42 1.32,-2.30 1.58,-2.10 1.84,-1.91 2.04,-1.66 2.24,-1.42 2.38,-1.13 2.52,-0.84 2.58,-0.52 2.64,-0.21 2.63,0.10 2.62,0.42 2.53,0.73 2.44,1.04 2.28,1.31 2.12,1.59 1.90,1.82 1.68,2.05 1.40,2.22 1.13,2.40 1.13,2.40 L 1.13,2.40 Z"></path></g><g transform="translate(1530.4035507386234 1139.094889355742) rotate(0 137.5 68.5)"><text x="0" y="31.666666666666664" font-family="Virgil, Segoe UI Emoji" font-size="36px" fill="#000000" text-anchor="start" style="white-space: pre;" direction="ltr">- Monitors</text><text x="0" y="77.33333333333333" font-family="Virgil, Segoe UI Emoji" font-size="36px" fill="#000000" text-anchor="start" style="white-space: pre;" direction="ltr">- Audio Devices</text><text x="0" y="123" font-family="Virgil, Segoe UI Emoji" font-size="36px" fill="#000000" text-anchor="start" style="white-space: pre;" direction="ltr"></text></g><g transform="translate(106.93929629289448 1154.8925277281614) rotate(0 104.5 45.5)"><text x="0" y="32.5" font-family="Virgil, Segoe UI Emoji" font-size="36px" fill="#000000" text-anchor="start" style="white-space: pre;" direction="ltr">- Keyboards</text><text x="0" y="78" font-family="Virgil, Segoe UI Emoji" font-size="36px" fill="#000000" text-anchor="start" style="white-space: pre;" direction="ltr">- Mouse</text></g><g stroke-linecap="round"><g transform="translate(1238.9531315376285 1328.970927789548) rotate(0 155.40026454473553 52.55807773865689)"><path d="M-0.84 -0.45 C50.89 17.5, 257.53 88.98, 309.41 106.84 M0.92 -1.73 C53.1 15.93, 260.17 87.32, 311.64 105.04" stroke="#000000" stroke-width="1" fill="none"></path></g><g transform="translate(1238.9531315376285 1328.970927789548) rotate(0 155.40026454473553 52.55807773865689)"><path d="M280.9 104.04 C289.26 105.85, 295.63 105, 310.52 104.19 M280.81 104.93 C288.83 105.11, 295.11 105.53, 312.03 105.4" stroke="#000000" stroke-width="1" fill="none"></path></g><g transform="translate(1238.9531315376285 1328.970927789548) rotate(0 155.40026454473553 52.55807773865689)"><path d="M287.58 84.64 C294.34 90.66, 299.25 94.08, 310.52 104.19 M287.49 85.52 C294.14 89.89, 298.96 94.54, 312.03 105.4" stroke="#000000" stroke-width="1" fill="none"></path></g></g><g transform="translate(1602.9461193687846 1395.08882950304) rotate(0 572 91)"><text x="0" y="32.5" font-family="Virgil, Segoe UI Emoji" font-size="36px" fill="#000000" text-anchor="start" style="white-space: pre;" direction="ltr">- Short term Storage (Volatile)</text><text x="0" y="78" font-family="Virgil, Segoe UI Emoji" font-size="36px" fill="#000000" text-anchor="start" style="white-space: pre;" direction="ltr">- The operating system has to load programs into memory.</text><text x="0" y="123.5" font-family="Virgil, Segoe UI Emoji" font-size="36px" fill="#000000" text-anchor="start" style="white-space: pre;" direction="ltr">- Some of the memory is dedicated to program's run time stack.</text><text x="0" y="169" font-family="Virgil, Segoe UI Emoji" font-size="36px" fill="#000000" text-anchor="start" style="white-space: pre;" direction="ltr"></text></g><g stroke-linecap="round"><g transform="translate(1237.5552029267633 1517.4177407532484) rotate(0 144.2516095091147 52.51364976175057)"><path d="M0.49 -0.37 C48.63 17.32, 240.9 88.86, 289.21 106.64 M-0.71 -1.62 C47.22 15.66, 239.72 86.51, 288.19 104.73" stroke="#000000" stroke-width="1" fill="none"></path></g><g transform="translate(1237.5552029267633 1517.4177407532484) rotate(0 144.2516095091147 52.51364976175057)"><path d="M257.56 104.3 C268.87 106.11, 278.39 104.59, 287.06 104.35 M257.77 104.79 C265.91 103.67, 271.56 105.05, 288.37 105.1" stroke="#000000" stroke-width="1" fill="none"></path></g><g transform="translate(1237.5552029267633 1517.4177407532484) rotate(0 144.2516095091147 52.51364976175057)"><path d="M264.71 85.06 C273.71 93.32, 280.85 98.21, 287.06 104.35 M264.91 85.55 C271.35 88.9, 275.34 94.74, 288.37 105.1" stroke="#000000" stroke-width="1" fill="none"></path></g></g><g transform="translate(1600.9944591799538 1621.6322426460615) rotate(0 299 23)"><text x="0" y="32" font-family="Virgil, Segoe UI Emoji" font-size="36px" fill="#000000" text-anchor="start" style="white-space: pre;" direction="ltr">- Long term storage of programs.</text></g><g stroke-linecap="round"><g transform="translate(533.6537822124894 115.90504483869461) rotate(0 107.94604059146178 203.04087775566228)"><path d="M-0.83 0.76 C35.14 68.08, 180.65 337.26, 216.72 404.76 M0.93 0.11 C36.67 67.51, 179.63 338.73, 215.81 405.97" stroke="#000000" stroke-width="1" fill="none"></path></g><g transform="translate(533.6537822124894 115.90504483869461) rotate(0 107.94604059146178 203.04087775566228)"><path d="M194.78 385.99 C200.96 391.83, 210.9 399.32, 215.71 407.3 M194.38 385.93 C198.8 389.29, 201.96 393.86, 216.22 405.84" stroke="#000000" stroke-width="1" fill="none"></path></g><g transform="translate(533.6537822124894 115.90504483869461) rotate(0 107.94604059146178 203.04087775566228)"><path d="M212.9 376.36 C212.37 385.68, 215.53 396.77, 215.71 407.3 M212.5 376.29 C213.09 381.78, 212.49 388.35, 216.22 405.84" stroke="#000000" stroke-width="1" fill="none"></path></g></g><g transform="translate(315.59024978997104 30.012880174619568) rotate(0 225.21410997953376 34.88164666349684)"><text x="0" y="48.76329332699369" font-family="Virgil, Segoe UI Emoji" font-size="54.597359995038495px" fill="#000000" text-anchor="start" style="white-space: pre;" direction="ltr">The Process list</text></g><g transform="translate(684.9736779208467 250.276013038075) rotate(0 390.5 23)"><text x="0" y="32" font-family="Virgil, Segoe UI Emoji" font-size="36px" fill="#000000" text-anchor="start" style="white-space: pre;" direction="ltr">Allows you to run multiple programs at once</text></g><g transform="translate(1702.936473257547 10) rotate(0 247.7052026834598 36.756255882061794)"><text x="0" y="51.51251176412357" font-family="Virgil, Segoe UI Emoji" font-size="57.53153094583582px" fill="#000000" text-anchor="start" style="white-space: pre;" direction="ltr">Context Switching</text></g><g stroke-linecap="round"><g transform="translate(1895.5240556064125 93.86420967842525) rotate(0 -324.54248991896657 236.38664598874095)"><path d="M-0.19 0.98 C-108.17 79.57, -540.27 392.63, -648.41 470.99 M-1.74 0.46 C-109.76 79.25, -540.92 393.68, -648.9 472.32" stroke="#000000" stroke-width="1" fill="none"></path></g><g transform="translate(1895.5240556064125 93.86420967842525) rotate(0 -324.54248991896657 236.38664598874095)"><path d="M-630.52 448.89 C-637.23 454.26, -641.32 461.4, -650.38 470.58 M-631.99 447.17 C-635.63 453.63, -640.46 459.41, -648.56 473.09" stroke="#000000" stroke-width="1" fill="none"></path></g><g transform="translate(1895.5240556064125 93.86420967842525) rotate(0 -324.54248991896657 236.38664598874095)"><path d="M-618.43 465.47 C-628.18 466.55, -635.39 469.43, -650.38 470.58 M-619.9 463.75 C-626.54 466.17, -634.4 467.8, -648.56 473.09" stroke="#000000" stroke-width="1" fill="none"></path></g></g><g stroke-linecap="round" transform="translate(10 911.9029347791273) rotate(0 250.36388504069873 205.42676849904308)"><path d="M-0.73 0.31 C134.67 -1.19, 268.84 -0.87, 500.08 0.03 M-0.32 -0.25 C170.85 1.02, 342.24 0.99, 500.44 -0.36 M499.97 -0.58 C501.69 107.98, 502.41 215.65, 500.66 409.96 M500.96 -0.54 C500.39 119.48, 500.05 238.44, 500.96 410.53 M499.96 410.4 C373.19 412.37, 247.59 412.17, -0.19 410.11 M500.54 410.57 C327.25 412.58, 154.49 411.98, -0.18 410.46 M-0.64 410.01 C-0.26 261.9, -0.08 113.8, 1.01 0.71 M0.36 411.11 C-2.27 257.94, -1.7 105.65, 0.3 0.09" stroke="#000000" stroke-width="1" fill="none"></path></g><g stroke-linecap="round" transform="translate(1517.6857286354941 1001.7771678624384) rotate(0 306.305908332894 149.48460527097677)"><path d="M-0.21 -0.54 C244.11 1.01, 486.99 1.43, 612.54 -0.33 M0.17 0.26 C189.98 0.1, 380.02 0.56, 612.95 0.22 M612.27 0.42 C614.73 80.93, 615.4 162.72, 612.12 297.56 M612.49 0.68 C611.47 69.8, 611.81 140.39, 613.2 299.35 M612.51 298.71 C462.29 300.64, 311.65 300.26, 0.07 299.08 M612.72 299.31 C369.9 297.05, 126.56 297.51, 0.08 298.9 M0.23 299.14 C1.18 233.9, -0.1 169.37, 0.19 -1.15 M-0.58 299.58 C-0.81 213.24, -0.54 127.39, 0.08 -0.06" stroke="#000000" stroke-width="1" fill="none"></path></g></svg>